G75*
%MOIN*%
%OFA0B0*%
%FSLAX24Y24*%
%IPPOS*%
%LPD*%
%AMOC8*
5,1,8,0,0,1.08239X$1,22.5*
%
%ADD10OC8,0.0640*%
%ADD11C,0.0316*%
%ADD12C,0.0707*%
%ADD13C,0.0721*%
%ADD14C,0.0400*%
%ADD15C,0.0730*%
%ADD16R,0.0730X0.0730*%
%ADD17C,0.0820*%
%ADD18R,0.0820X0.0820*%
%ADD19C,0.2080*%
%ADD20C,0.0720*%
D10*
X007600Y014052D03*
X009200Y014152D03*
X009200Y017152D03*
X009600Y018552D03*
X009600Y020052D03*
X009700Y021752D03*
X006700Y021752D03*
X005900Y021752D03*
X005700Y020052D03*
X006600Y020052D03*
X006600Y018552D03*
X005700Y018552D03*
X007600Y017052D03*
X002900Y021752D03*
X002700Y020052D03*
X002700Y018552D03*
X016200Y022452D03*
X017300Y021052D03*
X019200Y022452D03*
X017300Y018052D03*
X020800Y011352D03*
X020800Y008352D03*
D11*
X015200Y019152D03*
X015200Y020152D03*
X014800Y021952D03*
X014800Y022952D03*
X013000Y022752D03*
X013000Y021752D03*
X013000Y017752D03*
X013000Y016752D03*
X013000Y015252D03*
X013000Y014252D03*
D12*
X013000Y020252D03*
D13*
X013000Y019252D03*
D14*
X011500Y019252D03*
X010750Y019752D03*
X011500Y020252D03*
X011500Y021752D03*
X010750Y022252D03*
X011500Y022752D03*
X011500Y017752D03*
X010750Y017252D03*
X011500Y016752D03*
X011500Y015252D03*
X010750Y014752D03*
X011500Y014252D03*
D15*
X018100Y013352D03*
D16*
X018100Y012352D03*
D17*
X020500Y013752D03*
X020500Y014752D03*
X020500Y015752D03*
X020500Y016752D03*
X020500Y017752D03*
X020500Y018752D03*
X020500Y019752D03*
X020500Y020752D03*
X020500Y022752D03*
X020500Y023752D03*
X020500Y024752D03*
X020500Y025752D03*
X020500Y026752D03*
X020500Y027752D03*
X011591Y008811D03*
X012134Y007693D03*
X011043Y007693D03*
X010500Y008811D03*
X009957Y007693D03*
X009409Y008811D03*
X008866Y007693D03*
X008319Y008811D03*
X001500Y010252D03*
X001500Y011252D03*
X001500Y012252D03*
X001500Y013252D03*
X001500Y014252D03*
X001500Y015252D03*
X001500Y016252D03*
X001500Y017252D03*
X001500Y018252D03*
X001500Y019252D03*
X001500Y020752D03*
X001500Y021752D03*
X001500Y022752D03*
X001500Y023752D03*
X001500Y024752D03*
X001500Y025752D03*
X001500Y026752D03*
X001500Y027752D03*
D18*
X012681Y008811D03*
D19*
X015421Y008252D03*
X005579Y008252D03*
D20*
X003720Y007252D02*
X003080Y007252D01*
X003180Y008252D02*
X003820Y008252D01*
X003720Y009252D02*
X003080Y009252D01*
X003180Y010252D02*
X003820Y010252D01*
X007000Y023932D02*
X007000Y024572D01*
X007000Y025932D02*
X007000Y026572D01*
X008000Y026472D02*
X008000Y025832D01*
X009000Y025932D02*
X009000Y026572D01*
X009000Y024572D02*
X009000Y023932D01*
X008000Y023832D02*
X008000Y024472D01*
X010580Y025252D02*
X011220Y025252D01*
X011320Y024252D02*
X010680Y024252D01*
X010680Y026252D02*
X011320Y026252D01*
X015500Y028032D02*
X015500Y028672D01*
X016500Y028572D02*
X016500Y027932D01*
X017500Y028032D02*
X017500Y028672D01*
X018500Y028572D02*
X018500Y027932D01*
X018320Y026302D02*
X017680Y026302D01*
X017680Y025202D02*
X018320Y025202D01*
X016320Y025202D02*
X015680Y025202D01*
X015680Y026302D02*
X016320Y026302D01*
X017180Y016802D02*
X017820Y016802D01*
X017820Y015702D02*
X017180Y015702D01*
X018580Y010452D02*
X019220Y010452D01*
X019320Y009452D02*
X018680Y009452D01*
X018580Y008452D02*
X019220Y008452D01*
X004920Y027252D02*
X004280Y027252D01*
X004180Y028252D02*
X004820Y028252D01*
X004820Y026252D02*
X004180Y026252D01*
M02*
