G75*
%MOIN*%
%OFA0B0*%
%FSLAX24Y24*%
%IPPOS*%
%LPD*%
%AMOC8*
5,1,8,0,0,1.08239X$1,22.5*
%
%ADD10C,0.0160*%
%ADD11C,0.0060*%
%ADD12C,0.0040*%
%ADD13R,0.0200X0.0150*%
%ADD14R,0.0150X0.0200*%
%ADD15C,0.0080*%
%ADD16C,0.0020*%
%ADD17C,0.0010*%
D10*
X000500Y006252D02*
X000500Y030752D01*
X022000Y030752D01*
X022000Y006252D01*
X000500Y006252D01*
D11*
X002087Y010082D02*
X002030Y010139D01*
X002087Y010082D02*
X002200Y010082D01*
X002257Y010139D01*
X002257Y010196D01*
X002200Y010253D01*
X002087Y010253D01*
X002030Y010309D01*
X002030Y010366D01*
X002087Y010423D01*
X002200Y010423D01*
X002257Y010366D01*
X002398Y010366D02*
X002398Y010139D01*
X002455Y010082D01*
X002568Y010082D01*
X002625Y010139D01*
X002767Y010082D02*
X002767Y010423D01*
X002625Y010366D02*
X002568Y010423D01*
X002455Y010423D01*
X002398Y010366D01*
X002767Y010082D02*
X002993Y010082D01*
X002993Y011082D02*
X002993Y011309D01*
X002880Y011423D01*
X002767Y011309D01*
X002767Y011082D01*
X002625Y011139D02*
X002625Y011366D01*
X002568Y011423D01*
X002398Y011423D01*
X002398Y011082D01*
X002568Y011082D01*
X002625Y011139D01*
X002767Y011253D02*
X002993Y011253D01*
X002257Y011196D02*
X002257Y011139D01*
X002200Y011082D01*
X002087Y011082D01*
X002030Y011139D01*
X002087Y011253D02*
X002200Y011253D01*
X002257Y011196D01*
X002257Y011366D02*
X002200Y011423D01*
X002087Y011423D01*
X002030Y011366D01*
X002030Y011309D01*
X002087Y011253D01*
X002030Y012082D02*
X002030Y012309D01*
X002143Y012423D01*
X002257Y012309D01*
X002257Y012082D01*
X002398Y012082D02*
X002398Y012423D01*
X002568Y012423D01*
X002625Y012366D01*
X002625Y012253D01*
X002568Y012196D01*
X002398Y012196D01*
X002512Y012196D02*
X002625Y012082D01*
X002767Y012082D02*
X002767Y012423D01*
X002993Y012423D01*
X003135Y012423D02*
X003135Y012082D01*
X002993Y012082D02*
X002767Y012082D01*
X002767Y012253D02*
X002880Y012253D01*
X003135Y012253D02*
X003248Y012253D01*
X003135Y012423D02*
X003362Y012423D01*
X002937Y013082D02*
X002993Y013139D01*
X002993Y013366D01*
X002937Y013423D01*
X002767Y013423D01*
X002767Y013082D01*
X002937Y013082D01*
X002625Y013082D02*
X002625Y013423D01*
X002398Y013423D02*
X002398Y013082D01*
X002257Y013139D02*
X002257Y013253D01*
X002143Y013253D01*
X002030Y013366D02*
X002030Y013139D01*
X002087Y013082D01*
X002200Y013082D01*
X002257Y013139D01*
X002257Y013366D02*
X002200Y013423D01*
X002087Y013423D01*
X002030Y013366D01*
X002398Y013423D02*
X002625Y013082D01*
X002257Y012253D02*
X002030Y012253D01*
X002030Y014082D02*
X002257Y014082D01*
X002143Y014082D02*
X002143Y014423D01*
X002030Y014309D01*
X002398Y014366D02*
X002455Y014423D01*
X002568Y014423D01*
X002625Y014366D01*
X002625Y014309D01*
X002568Y014253D01*
X002625Y014196D01*
X002625Y014139D01*
X002568Y014082D01*
X002455Y014082D01*
X002398Y014139D01*
X002512Y014253D02*
X002568Y014253D01*
X002625Y015082D02*
X002398Y015082D01*
X002625Y015309D01*
X002625Y015366D01*
X002568Y015423D01*
X002455Y015423D01*
X002398Y015366D01*
X002143Y015423D02*
X002143Y015082D01*
X002030Y015082D02*
X002257Y015082D01*
X002030Y015309D02*
X002143Y015423D01*
X002143Y016082D02*
X002143Y016423D01*
X002030Y016309D01*
X002030Y016082D02*
X002257Y016082D01*
X002398Y016082D02*
X002625Y016082D01*
X002512Y016082D02*
X002512Y016423D01*
X002398Y016309D01*
X002455Y017082D02*
X002398Y017139D01*
X002625Y017366D01*
X002625Y017139D01*
X002568Y017082D01*
X002455Y017082D01*
X002398Y017139D02*
X002398Y017366D01*
X002455Y017423D01*
X002568Y017423D01*
X002625Y017366D01*
X002257Y017082D02*
X002030Y017082D01*
X002143Y017082D02*
X002143Y017423D01*
X002030Y017309D01*
X002087Y018082D02*
X002200Y018082D01*
X002257Y018139D01*
X002257Y018366D01*
X002200Y018423D01*
X002087Y018423D01*
X002030Y018366D01*
X002030Y018309D01*
X002087Y018253D01*
X002257Y018253D01*
X002087Y018082D02*
X002030Y018139D01*
X002087Y019082D02*
X002030Y019139D01*
X002030Y019196D01*
X002087Y019253D01*
X002200Y019253D01*
X002257Y019196D01*
X002257Y019139D01*
X002200Y019082D01*
X002087Y019082D01*
X002087Y019253D02*
X002030Y019309D01*
X002030Y019366D01*
X002087Y019423D01*
X002200Y019423D01*
X002257Y019366D01*
X002257Y019309D01*
X002200Y019253D01*
X002030Y020582D02*
X002030Y020639D01*
X002257Y020866D01*
X002257Y020923D01*
X002030Y020923D01*
X002087Y021582D02*
X002200Y021582D01*
X002257Y021639D01*
X002257Y021696D01*
X002200Y021753D01*
X002030Y021753D01*
X002030Y021639D01*
X002087Y021582D01*
X002030Y021753D02*
X002143Y021866D01*
X002257Y021923D01*
X002200Y022582D02*
X002087Y022582D01*
X002030Y022639D01*
X002030Y022753D02*
X002143Y022809D01*
X002200Y022809D01*
X002257Y022753D01*
X002257Y022639D01*
X002200Y022582D01*
X002030Y022753D02*
X002030Y022923D01*
X002257Y022923D01*
X002200Y023582D02*
X002200Y023923D01*
X002030Y023753D01*
X002257Y023753D01*
X002200Y024582D02*
X002087Y024582D01*
X002030Y024639D01*
X002143Y024753D02*
X002200Y024753D01*
X002257Y024696D01*
X002257Y024639D01*
X002200Y024582D01*
X002200Y024753D02*
X002257Y024809D01*
X002257Y024866D01*
X002200Y024923D01*
X002087Y024923D01*
X002030Y024866D01*
X002030Y025582D02*
X002257Y025809D01*
X002257Y025866D01*
X002200Y025923D01*
X002087Y025923D01*
X002030Y025866D01*
X002030Y025582D02*
X002257Y025582D01*
X002143Y026582D02*
X002143Y026923D01*
X002030Y026923D02*
X002257Y026923D01*
X002398Y026923D02*
X002625Y026582D01*
X002398Y026582D02*
X002625Y026923D01*
X002625Y027582D02*
X002398Y027923D01*
X002257Y027866D02*
X002257Y027753D01*
X002200Y027696D01*
X002030Y027696D01*
X002143Y027696D02*
X002257Y027582D01*
X002398Y027582D02*
X002625Y027923D01*
X002257Y027866D02*
X002200Y027923D01*
X002030Y027923D01*
X002030Y027582D01*
X003500Y022152D02*
X003650Y022152D01*
X003700Y022102D01*
X005100Y022102D01*
X005150Y022152D01*
X005300Y022152D01*
X005317Y022150D01*
X005334Y022146D01*
X005350Y022139D01*
X005364Y022129D01*
X005377Y022116D01*
X005387Y022102D01*
X005394Y022086D01*
X005398Y022069D01*
X005400Y022052D01*
X005400Y021452D01*
X005398Y021435D01*
X005394Y021418D01*
X005387Y021402D01*
X005377Y021388D01*
X005364Y021375D01*
X005350Y021365D01*
X005334Y021358D01*
X005317Y021354D01*
X005300Y021352D01*
X005150Y021352D01*
X005100Y021402D01*
X003700Y021402D01*
X003650Y021352D01*
X003500Y021352D01*
X003483Y021354D01*
X003466Y021358D01*
X003450Y021365D01*
X003436Y021375D01*
X003423Y021388D01*
X003413Y021402D01*
X003406Y021418D01*
X003402Y021435D01*
X003400Y021452D01*
X003400Y022052D01*
X003402Y022069D01*
X003406Y022086D01*
X003413Y022102D01*
X003423Y022116D01*
X003436Y022129D01*
X003450Y022139D01*
X003466Y022146D01*
X003483Y022150D01*
X003500Y022152D01*
X003450Y020452D02*
X003300Y020452D01*
X003283Y020450D01*
X003266Y020446D01*
X003250Y020439D01*
X003236Y020429D01*
X003223Y020416D01*
X003213Y020402D01*
X003206Y020386D01*
X003202Y020369D01*
X003200Y020352D01*
X003200Y019752D01*
X003202Y019735D01*
X003206Y019718D01*
X003213Y019702D01*
X003223Y019688D01*
X003236Y019675D01*
X003250Y019665D01*
X003266Y019658D01*
X003283Y019654D01*
X003300Y019652D01*
X003450Y019652D01*
X003500Y019702D01*
X004900Y019702D01*
X004950Y019652D01*
X005100Y019652D01*
X005117Y019654D01*
X005134Y019658D01*
X005150Y019665D01*
X005164Y019675D01*
X005177Y019688D01*
X005187Y019702D01*
X005194Y019718D01*
X005198Y019735D01*
X005200Y019752D01*
X005200Y020352D01*
X005198Y020369D01*
X005194Y020386D01*
X005187Y020402D01*
X005177Y020416D01*
X005164Y020429D01*
X005150Y020439D01*
X005134Y020446D01*
X005117Y020450D01*
X005100Y020452D01*
X004950Y020452D01*
X004900Y020402D01*
X003500Y020402D01*
X003450Y020452D01*
X003450Y018952D02*
X003300Y018952D01*
X003283Y018950D01*
X003266Y018946D01*
X003250Y018939D01*
X003236Y018929D01*
X003223Y018916D01*
X003213Y018902D01*
X003206Y018886D01*
X003202Y018869D01*
X003200Y018852D01*
X003200Y018252D01*
X003202Y018235D01*
X003206Y018218D01*
X003213Y018202D01*
X003223Y018188D01*
X003236Y018175D01*
X003250Y018165D01*
X003266Y018158D01*
X003283Y018154D01*
X003300Y018152D01*
X003450Y018152D01*
X003500Y018202D01*
X004900Y018202D01*
X004950Y018152D01*
X005100Y018152D01*
X005117Y018154D01*
X005134Y018158D01*
X005150Y018165D01*
X005164Y018175D01*
X005177Y018188D01*
X005187Y018202D01*
X005194Y018218D01*
X005198Y018235D01*
X005200Y018252D01*
X005200Y018852D01*
X005198Y018869D01*
X005194Y018886D01*
X005187Y018902D01*
X005177Y018916D01*
X005164Y018929D01*
X005150Y018939D01*
X005134Y018946D01*
X005117Y018950D01*
X005100Y018952D01*
X004950Y018952D01*
X004900Y018902D01*
X003500Y018902D01*
X003450Y018952D01*
X007100Y018852D02*
X007100Y018252D01*
X007102Y018235D01*
X007106Y018218D01*
X007113Y018202D01*
X007123Y018188D01*
X007136Y018175D01*
X007150Y018165D01*
X007166Y018158D01*
X007183Y018154D01*
X007200Y018152D01*
X007350Y018152D01*
X007400Y018202D01*
X008800Y018202D01*
X008850Y018152D01*
X009000Y018152D01*
X009017Y018154D01*
X009034Y018158D01*
X009050Y018165D01*
X009064Y018175D01*
X009077Y018188D01*
X009087Y018202D01*
X009094Y018218D01*
X009098Y018235D01*
X009100Y018252D01*
X009100Y018852D01*
X009098Y018869D01*
X009094Y018886D01*
X009087Y018902D01*
X009077Y018916D01*
X009064Y018929D01*
X009050Y018939D01*
X009034Y018946D01*
X009017Y018950D01*
X009000Y018952D01*
X008850Y018952D01*
X008800Y018902D01*
X007400Y018902D01*
X007350Y018952D01*
X007200Y018952D01*
X007183Y018950D01*
X007166Y018946D01*
X007150Y018939D01*
X007136Y018929D01*
X007123Y018916D01*
X007113Y018902D01*
X007106Y018886D01*
X007102Y018869D01*
X007100Y018852D01*
X007200Y019652D02*
X007350Y019652D01*
X007400Y019702D01*
X008800Y019702D01*
X008850Y019652D01*
X009000Y019652D01*
X009017Y019654D01*
X009034Y019658D01*
X009050Y019665D01*
X009064Y019675D01*
X009077Y019688D01*
X009087Y019702D01*
X009094Y019718D01*
X009098Y019735D01*
X009100Y019752D01*
X009100Y020352D01*
X009098Y020369D01*
X009094Y020386D01*
X009087Y020402D01*
X009077Y020416D01*
X009064Y020429D01*
X009050Y020439D01*
X009034Y020446D01*
X009017Y020450D01*
X009000Y020452D01*
X008850Y020452D01*
X008800Y020402D01*
X007400Y020402D01*
X007350Y020452D01*
X007200Y020452D01*
X007183Y020450D01*
X007166Y020446D01*
X007150Y020439D01*
X007136Y020429D01*
X007123Y020416D01*
X007113Y020402D01*
X007106Y020386D01*
X007102Y020369D01*
X007100Y020352D01*
X007100Y019752D01*
X007102Y019735D01*
X007106Y019718D01*
X007113Y019702D01*
X007123Y019688D01*
X007136Y019675D01*
X007150Y019665D01*
X007166Y019658D01*
X007183Y019654D01*
X007200Y019652D01*
X007300Y021352D02*
X007450Y021352D01*
X007500Y021402D01*
X008900Y021402D01*
X008950Y021352D01*
X009100Y021352D01*
X009117Y021354D01*
X009134Y021358D01*
X009150Y021365D01*
X009164Y021375D01*
X009177Y021388D01*
X009187Y021402D01*
X009194Y021418D01*
X009198Y021435D01*
X009200Y021452D01*
X009200Y022052D01*
X009198Y022069D01*
X009194Y022086D01*
X009187Y022102D01*
X009177Y022116D01*
X009164Y022129D01*
X009150Y022139D01*
X009134Y022146D01*
X009117Y022150D01*
X009100Y022152D01*
X008950Y022152D01*
X008900Y022102D01*
X007500Y022102D01*
X007450Y022152D01*
X007300Y022152D01*
X007283Y022150D01*
X007266Y022146D01*
X007250Y022139D01*
X007236Y022129D01*
X007223Y022116D01*
X007213Y022102D01*
X007206Y022086D01*
X007202Y022069D01*
X007200Y022052D01*
X007200Y021452D01*
X007202Y021435D01*
X007206Y021418D01*
X007213Y021402D01*
X007223Y021388D01*
X007236Y021375D01*
X007250Y021365D01*
X007266Y021358D01*
X007283Y021354D01*
X007300Y021352D01*
X007300Y016552D02*
X007900Y016552D01*
X007917Y016550D01*
X007934Y016546D01*
X007950Y016539D01*
X007964Y016529D01*
X007977Y016516D01*
X007987Y016502D01*
X007994Y016486D01*
X007998Y016469D01*
X008000Y016452D01*
X008000Y016302D01*
X007950Y016252D01*
X007950Y014852D01*
X008000Y014802D01*
X008000Y014652D01*
X007998Y014635D01*
X007994Y014618D01*
X007987Y014602D01*
X007977Y014588D01*
X007964Y014575D01*
X007950Y014565D01*
X007934Y014558D01*
X007917Y014554D01*
X007900Y014552D01*
X007300Y014552D01*
X007283Y014554D01*
X007266Y014558D01*
X007250Y014565D01*
X007236Y014575D01*
X007223Y014588D01*
X007213Y014602D01*
X007206Y014618D01*
X007202Y014635D01*
X007200Y014652D01*
X007200Y014802D01*
X007250Y014852D01*
X007250Y016252D01*
X007200Y016302D01*
X007200Y016452D01*
X007202Y016469D01*
X007206Y016486D01*
X007213Y016502D01*
X007223Y016516D01*
X007236Y016529D01*
X007250Y016539D01*
X007266Y016546D01*
X007283Y016550D01*
X007300Y016552D01*
X008800Y016552D02*
X008800Y016402D01*
X008850Y016352D01*
X008850Y014952D01*
X008800Y014902D01*
X008800Y014752D01*
X008802Y014735D01*
X008806Y014718D01*
X008813Y014702D01*
X008823Y014688D01*
X008836Y014675D01*
X008850Y014665D01*
X008866Y014658D01*
X008883Y014654D01*
X008900Y014652D01*
X009500Y014652D01*
X009517Y014654D01*
X009534Y014658D01*
X009550Y014665D01*
X009564Y014675D01*
X009577Y014688D01*
X009587Y014702D01*
X009594Y014718D01*
X009598Y014735D01*
X009600Y014752D01*
X009600Y014902D01*
X009550Y014952D01*
X009550Y016352D01*
X009600Y016402D01*
X009600Y016552D01*
X009598Y016569D01*
X009594Y016586D01*
X009587Y016602D01*
X009577Y016616D01*
X009564Y016629D01*
X009550Y016639D01*
X009534Y016646D01*
X009517Y016650D01*
X009500Y016652D01*
X008900Y016652D01*
X008883Y016650D01*
X008866Y016646D01*
X008850Y016639D01*
X008836Y016629D01*
X008823Y016616D01*
X008813Y016602D01*
X008806Y016586D01*
X008802Y016569D01*
X008800Y016552D01*
X016700Y022152D02*
X016700Y022752D01*
X016702Y022769D01*
X016706Y022786D01*
X016713Y022802D01*
X016723Y022816D01*
X016736Y022829D01*
X016750Y022839D01*
X016766Y022846D01*
X016783Y022850D01*
X016800Y022852D01*
X016950Y022852D01*
X017000Y022802D01*
X018400Y022802D01*
X018450Y022852D01*
X018600Y022852D01*
X018617Y022850D01*
X018634Y022846D01*
X018650Y022839D01*
X018664Y022829D01*
X018677Y022816D01*
X018687Y022802D01*
X018694Y022786D01*
X018698Y022769D01*
X018700Y022752D01*
X018700Y022152D01*
X018698Y022135D01*
X018694Y022118D01*
X018687Y022102D01*
X018677Y022088D01*
X018664Y022075D01*
X018650Y022065D01*
X018634Y022058D01*
X018617Y022054D01*
X018600Y022052D01*
X018450Y022052D01*
X018400Y022102D01*
X017000Y022102D01*
X016950Y022052D01*
X016800Y022052D01*
X016783Y022054D01*
X016766Y022058D01*
X016750Y022065D01*
X016736Y022075D01*
X016723Y022088D01*
X016713Y022102D01*
X016706Y022118D01*
X016702Y022135D01*
X016700Y022152D01*
X017000Y020552D02*
X017600Y020552D01*
X017617Y020550D01*
X017634Y020546D01*
X017650Y020539D01*
X017664Y020529D01*
X017677Y020516D01*
X017687Y020502D01*
X017694Y020486D01*
X017698Y020469D01*
X017700Y020452D01*
X017700Y020302D01*
X017650Y020252D01*
X017650Y018852D01*
X017700Y018802D01*
X017700Y018652D01*
X017698Y018635D01*
X017694Y018618D01*
X017687Y018602D01*
X017677Y018588D01*
X017664Y018575D01*
X017650Y018565D01*
X017634Y018558D01*
X017617Y018554D01*
X017600Y018552D01*
X017000Y018552D01*
X016983Y018554D01*
X016966Y018558D01*
X016950Y018565D01*
X016936Y018575D01*
X016923Y018588D01*
X016913Y018602D01*
X016906Y018618D01*
X016902Y018635D01*
X016900Y018652D01*
X016900Y018802D01*
X016950Y018852D01*
X016950Y020252D01*
X016900Y020302D01*
X016900Y020452D01*
X016902Y020469D01*
X016906Y020486D01*
X016913Y020502D01*
X016923Y020516D01*
X016936Y020529D01*
X016950Y020539D01*
X016966Y020546D01*
X016983Y020550D01*
X017000Y020552D01*
X018880Y019866D02*
X018880Y019639D01*
X018937Y019582D01*
X019050Y019582D01*
X019107Y019639D01*
X019107Y019753D01*
X018993Y019753D01*
X018880Y019866D02*
X018937Y019923D01*
X019050Y019923D01*
X019107Y019866D01*
X019248Y019923D02*
X019475Y019582D01*
X019475Y019923D01*
X019617Y019923D02*
X019617Y019582D01*
X019787Y019582D01*
X019844Y019639D01*
X019844Y019866D01*
X019787Y019923D01*
X019617Y019923D01*
X019248Y019923D02*
X019248Y019582D01*
X019248Y018923D02*
X019475Y018582D01*
X019475Y018923D01*
X019617Y018923D02*
X019617Y018582D01*
X019787Y018582D01*
X019844Y018639D01*
X019844Y018866D01*
X019787Y018923D01*
X019617Y018923D01*
X019248Y018923D02*
X019248Y018582D01*
X019107Y018639D02*
X019107Y018753D01*
X018993Y018753D01*
X018880Y018866D02*
X018880Y018639D01*
X018937Y018582D01*
X019050Y018582D01*
X019107Y018639D01*
X019107Y018866D02*
X019050Y018923D01*
X018937Y018923D01*
X018880Y018866D01*
X018993Y017866D02*
X018993Y017639D01*
X018880Y017753D02*
X019107Y017753D01*
X019248Y017753D02*
X019362Y017809D01*
X019419Y017809D01*
X019475Y017753D01*
X019475Y017639D01*
X019419Y017582D01*
X019305Y017582D01*
X019248Y017639D01*
X019248Y017753D02*
X019248Y017923D01*
X019475Y017923D01*
X019617Y017923D02*
X019617Y017696D01*
X019730Y017582D01*
X019844Y017696D01*
X019844Y017923D01*
X019844Y016923D02*
X019844Y016696D01*
X019730Y016582D01*
X019617Y016696D01*
X019617Y016923D01*
X019475Y016866D02*
X019475Y016809D01*
X019419Y016753D01*
X019475Y016696D01*
X019475Y016639D01*
X019419Y016582D01*
X019305Y016582D01*
X019248Y016639D01*
X019121Y016639D02*
X019121Y016582D01*
X019064Y016582D01*
X019064Y016639D01*
X019121Y016639D01*
X018923Y016639D02*
X018866Y016582D01*
X018753Y016582D01*
X018696Y016639D01*
X018809Y016753D02*
X018866Y016753D01*
X018923Y016696D01*
X018923Y016639D01*
X018866Y016753D02*
X018923Y016809D01*
X018923Y016866D01*
X018866Y016923D01*
X018753Y016923D01*
X018696Y016866D01*
X018554Y016753D02*
X018328Y016753D01*
X018441Y016866D02*
X018441Y016639D01*
X018880Y015923D02*
X019050Y015923D01*
X019107Y015866D01*
X019107Y015753D01*
X019050Y015696D01*
X018880Y015696D01*
X018993Y015696D02*
X019107Y015582D01*
X019248Y015639D02*
X019305Y015582D01*
X019419Y015582D01*
X019475Y015639D01*
X019475Y015696D01*
X019419Y015753D01*
X019305Y015753D01*
X019248Y015809D01*
X019248Y015866D01*
X019305Y015923D01*
X019419Y015923D01*
X019475Y015866D01*
X019617Y015923D02*
X019844Y015923D01*
X019730Y015923D02*
X019730Y015582D01*
X019617Y014923D02*
X019844Y014923D01*
X019730Y014753D02*
X019617Y014753D01*
X019617Y014923D02*
X019617Y014582D01*
X019475Y014582D02*
X019248Y014582D01*
X019248Y014923D01*
X019475Y014923D01*
X019362Y014753D02*
X019248Y014753D01*
X019107Y014753D02*
X019050Y014696D01*
X018880Y014696D01*
X018993Y014696D02*
X019107Y014582D01*
X019107Y014753D02*
X019107Y014866D01*
X019050Y014923D01*
X018880Y014923D01*
X018880Y014582D01*
X018739Y014639D02*
X018739Y014866D01*
X018682Y014923D01*
X018568Y014923D01*
X018512Y014866D01*
X018512Y014639D01*
X018568Y014582D01*
X018682Y014582D01*
X018739Y014639D01*
X018380Y014582D02*
X018266Y014582D01*
X018323Y014582D02*
X018323Y014923D01*
X018266Y014923D02*
X018380Y014923D01*
X018880Y015582D02*
X018880Y015923D01*
X019362Y016753D02*
X019419Y016753D01*
X019475Y016866D02*
X019419Y016923D01*
X019305Y016923D01*
X019248Y016866D01*
X019371Y020582D02*
X019485Y020582D01*
X019428Y020582D02*
X019428Y020923D01*
X019371Y020923D02*
X019485Y020923D01*
X019617Y020923D02*
X019617Y020582D01*
X019844Y020582D02*
X019617Y020923D01*
X019844Y020923D02*
X019844Y020582D01*
X019230Y020696D02*
X019230Y020923D01*
X019003Y020923D02*
X019003Y020696D01*
X019116Y020582D01*
X019230Y020696D01*
X019673Y022582D02*
X019617Y022639D01*
X019844Y022866D01*
X019844Y022639D01*
X019787Y022582D01*
X019673Y022582D01*
X019617Y022639D02*
X019617Y022866D01*
X019673Y022923D01*
X019787Y022923D01*
X019844Y022866D01*
X019844Y023582D02*
X019617Y023582D01*
X019730Y023582D02*
X019730Y023923D01*
X019617Y023809D01*
X019325Y023763D02*
X019098Y023763D01*
X018985Y023877D01*
X019098Y023990D01*
X019325Y023990D01*
X019325Y024131D02*
X019098Y024131D01*
X019098Y024302D01*
X019155Y024358D01*
X019325Y024358D01*
X019268Y024500D02*
X019212Y024556D01*
X019212Y024727D01*
X019155Y024727D02*
X019325Y024727D01*
X019325Y024556D01*
X019268Y024500D01*
X019098Y024556D02*
X019098Y024670D01*
X019155Y024727D01*
X019325Y024868D02*
X019325Y024981D01*
X019325Y024925D02*
X018985Y024925D01*
X018985Y024868D01*
X019155Y025114D02*
X019268Y025114D01*
X019325Y025170D01*
X019325Y025284D01*
X019268Y025340D01*
X019155Y025340D01*
X019098Y025284D01*
X019098Y025170D01*
X019155Y025114D01*
X019155Y025482D02*
X019268Y025482D01*
X019325Y025539D01*
X019325Y025709D01*
X019382Y025709D02*
X019098Y025709D01*
X019098Y025539D01*
X019155Y025482D01*
X019438Y025595D02*
X019438Y025652D01*
X019382Y025709D01*
X019617Y025639D02*
X019673Y025582D01*
X019787Y025582D01*
X019844Y025639D01*
X019844Y025696D01*
X019787Y025753D01*
X019730Y025753D01*
X019787Y025753D02*
X019844Y025809D01*
X019844Y025866D01*
X019787Y025923D01*
X019673Y025923D01*
X019617Y025866D01*
X019325Y026219D02*
X019325Y026332D01*
X019325Y026275D02*
X018985Y026275D01*
X018985Y026219D02*
X018985Y026332D01*
X019098Y026464D02*
X019098Y026634D01*
X019155Y026691D01*
X019325Y026691D01*
X019325Y026464D02*
X019098Y026464D01*
X019617Y026753D02*
X019844Y026753D01*
X019787Y026923D02*
X019787Y026582D01*
X019617Y026753D02*
X019787Y026923D01*
X019787Y027582D02*
X019673Y027582D01*
X019617Y027639D01*
X019617Y027753D02*
X019730Y027809D01*
X019787Y027809D01*
X019844Y027753D01*
X019844Y027639D01*
X019787Y027582D01*
X019617Y027753D02*
X019617Y027923D01*
X019844Y027923D01*
X019787Y024923D02*
X019673Y024923D01*
X019617Y024866D01*
X019787Y024923D02*
X019844Y024866D01*
X019844Y024809D01*
X019617Y024582D01*
X019844Y024582D01*
X019155Y023990D02*
X019155Y023763D01*
X020500Y010852D02*
X021100Y010852D01*
X021117Y010850D01*
X021134Y010846D01*
X021150Y010839D01*
X021164Y010829D01*
X021177Y010816D01*
X021187Y010802D01*
X021194Y010786D01*
X021198Y010769D01*
X021200Y010752D01*
X021200Y010602D01*
X021150Y010552D01*
X021150Y009152D01*
X021200Y009102D01*
X021200Y008952D01*
X021198Y008935D01*
X021194Y008918D01*
X021187Y008902D01*
X021177Y008888D01*
X021164Y008875D01*
X021150Y008865D01*
X021134Y008858D01*
X021117Y008854D01*
X021100Y008852D01*
X020500Y008852D01*
X020483Y008854D01*
X020466Y008858D01*
X020450Y008865D01*
X020436Y008875D01*
X020423Y008888D01*
X020413Y008902D01*
X020406Y008918D01*
X020402Y008935D01*
X020400Y008952D01*
X020400Y009102D01*
X020450Y009152D01*
X020450Y010552D01*
X020400Y010602D01*
X020400Y010752D01*
X020402Y010769D01*
X020406Y010786D01*
X020413Y010802D01*
X020423Y010816D01*
X020436Y010829D01*
X020450Y010839D01*
X020466Y010846D01*
X020483Y010850D01*
X020500Y010852D01*
D12*
X020270Y009824D02*
X020270Y009591D01*
X020270Y009707D02*
X019920Y009707D01*
X020036Y009591D01*
X020270Y009465D02*
X020270Y009231D01*
X020270Y009348D02*
X019920Y009348D01*
X020036Y009231D01*
X019978Y009106D02*
X020095Y009106D01*
X020153Y009048D01*
X020153Y008872D01*
X020270Y008872D02*
X019920Y008872D01*
X019920Y009048D01*
X019978Y009106D01*
X020153Y008989D02*
X020270Y009106D01*
X018180Y009123D02*
X018180Y008970D01*
X018103Y008893D01*
X017796Y009200D01*
X018103Y009200D01*
X018180Y009123D01*
X018103Y008893D02*
X017796Y008893D01*
X017720Y008970D01*
X017720Y009123D01*
X017796Y009200D01*
X018180Y008740D02*
X018180Y008433D01*
X018180Y008586D02*
X017720Y008586D01*
X017873Y008433D01*
X017720Y008279D02*
X017720Y008126D01*
X017720Y008203D02*
X018103Y008203D01*
X018180Y008126D01*
X018180Y008049D01*
X018103Y007972D01*
X016703Y015272D02*
X016780Y015349D01*
X016780Y015426D01*
X016703Y015503D01*
X016320Y015503D01*
X016320Y015579D02*
X016320Y015426D01*
X016396Y015733D02*
X016473Y015733D01*
X016550Y015809D01*
X016550Y016040D01*
X016703Y016040D02*
X016396Y016040D01*
X016320Y015963D01*
X016320Y015809D01*
X016396Y015733D01*
X016703Y015733D02*
X016780Y015809D01*
X016780Y015963D01*
X016703Y016040D01*
X016653Y018572D02*
X016653Y018748D01*
X016595Y018806D01*
X016478Y018806D01*
X016420Y018748D01*
X016420Y018572D01*
X016770Y018572D01*
X016653Y018689D02*
X016770Y018806D01*
X016770Y018931D02*
X016770Y019165D01*
X016770Y019048D02*
X016420Y019048D01*
X016536Y018931D01*
X016720Y022982D02*
X016720Y023333D01*
X016895Y023333D01*
X016954Y023274D01*
X016954Y023158D01*
X016895Y023099D01*
X016720Y023099D01*
X016837Y023099D02*
X016954Y022982D01*
X017079Y022982D02*
X017313Y023216D01*
X017313Y023274D01*
X017254Y023333D01*
X017137Y023333D01*
X017079Y023274D01*
X017079Y022982D02*
X017313Y022982D01*
X017676Y024072D02*
X017753Y024072D01*
X017829Y024149D01*
X017829Y024533D01*
X017753Y024533D02*
X017906Y024533D01*
X018060Y024533D02*
X018367Y024533D01*
X018367Y024456D01*
X018060Y024149D01*
X018060Y024072D01*
X017676Y024072D02*
X017599Y024149D01*
X016367Y024149D02*
X016290Y024072D01*
X016136Y024072D01*
X016060Y024149D01*
X016060Y024226D01*
X016136Y024303D01*
X016290Y024303D01*
X016367Y024226D01*
X016367Y024149D01*
X016290Y024303D02*
X016367Y024379D01*
X016367Y024456D01*
X016290Y024533D01*
X016136Y024533D01*
X016060Y024456D01*
X016060Y024379D01*
X016136Y024303D01*
X015906Y024533D02*
X015753Y024533D01*
X015829Y024533D02*
X015829Y024149D01*
X015753Y024072D01*
X015676Y024072D01*
X015599Y024149D01*
X018176Y027072D02*
X018253Y027072D01*
X018329Y027149D01*
X018329Y027533D01*
X018253Y027533D02*
X018406Y027533D01*
X018560Y027533D02*
X018560Y027303D01*
X018713Y027379D01*
X018790Y027379D01*
X018867Y027303D01*
X018867Y027149D01*
X018790Y027072D01*
X018636Y027072D01*
X018560Y027149D01*
X018560Y027533D02*
X018867Y027533D01*
X018176Y027072D02*
X018099Y027149D01*
X012180Y026619D02*
X012180Y026312D01*
X012180Y026465D02*
X011720Y026465D01*
X011873Y026312D01*
X011720Y026159D02*
X011720Y026005D01*
X011720Y026082D02*
X012103Y026082D01*
X012180Y026005D01*
X012180Y025928D01*
X012103Y025852D01*
X009094Y021223D02*
X008861Y021223D01*
X008735Y021164D02*
X008735Y021048D01*
X008677Y020989D01*
X008502Y020989D01*
X008619Y020989D02*
X008735Y020872D01*
X008861Y020872D02*
X008861Y020931D01*
X009094Y021164D01*
X009094Y021223D01*
X008735Y021164D02*
X008677Y021223D01*
X008502Y021223D01*
X008502Y020872D01*
X008577Y019523D02*
X008402Y019523D01*
X008402Y019172D01*
X008402Y019289D02*
X008577Y019289D01*
X008635Y019348D01*
X008635Y019464D01*
X008577Y019523D01*
X008761Y019464D02*
X008761Y019406D01*
X008819Y019348D01*
X008936Y019348D01*
X008994Y019289D01*
X008994Y019231D01*
X008936Y019172D01*
X008819Y019172D01*
X008761Y019231D01*
X008761Y019289D01*
X008819Y019348D01*
X008936Y019348D02*
X008994Y019406D01*
X008994Y019464D01*
X008936Y019523D01*
X008819Y019523D01*
X008761Y019464D01*
X008519Y019289D02*
X008635Y019172D01*
X008577Y018023D02*
X008402Y018023D01*
X008402Y017672D01*
X008402Y017789D02*
X008577Y017789D01*
X008635Y017848D01*
X008635Y017964D01*
X008577Y018023D01*
X008761Y017964D02*
X008761Y017906D01*
X008819Y017848D01*
X008994Y017848D01*
X008994Y017964D02*
X008994Y017731D01*
X008936Y017672D01*
X008819Y017672D01*
X008761Y017731D01*
X008635Y017672D02*
X008519Y017789D01*
X008761Y017964D02*
X008819Y018023D01*
X008936Y018023D01*
X008994Y017964D01*
X008422Y016447D02*
X008363Y016447D01*
X008305Y016388D01*
X008305Y016213D01*
X008422Y016213D01*
X008480Y016272D01*
X008480Y016388D01*
X008422Y016447D01*
X008188Y016330D02*
X008305Y016213D01*
X008305Y016088D02*
X008363Y016029D01*
X008363Y015854D01*
X008363Y015971D02*
X008480Y016088D01*
X008305Y016088D02*
X008188Y016088D01*
X008130Y016029D01*
X008130Y015854D01*
X008480Y015854D01*
X008188Y016330D02*
X008130Y016447D01*
X009730Y016488D02*
X009730Y016372D01*
X009788Y016313D01*
X010022Y016313D01*
X009788Y016547D01*
X010022Y016547D01*
X010080Y016488D01*
X010080Y016372D01*
X010022Y016313D01*
X010080Y016188D02*
X010080Y015954D01*
X010080Y016071D02*
X009730Y016071D01*
X009846Y015954D01*
X009788Y015829D02*
X009905Y015829D01*
X009963Y015770D01*
X009963Y015595D01*
X009963Y015712D02*
X010080Y015829D01*
X010080Y015595D02*
X009730Y015595D01*
X009730Y015770D01*
X009788Y015829D01*
X009730Y016488D02*
X009788Y016547D01*
X004603Y010619D02*
X004680Y010542D01*
X004680Y010389D01*
X004603Y010312D01*
X004450Y010312D01*
X004450Y010542D01*
X004527Y010619D01*
X004603Y010619D01*
X004296Y010465D02*
X004450Y010312D01*
X004296Y010465D02*
X004220Y010619D01*
X004220Y010159D02*
X004220Y010005D01*
X004220Y010082D02*
X004603Y010082D01*
X004680Y010005D01*
X004680Y009928D01*
X004603Y009852D01*
X003754Y019082D02*
X003637Y019082D01*
X003579Y019141D01*
X003579Y019258D02*
X003696Y019316D01*
X003754Y019316D01*
X003813Y019258D01*
X003813Y019141D01*
X003754Y019082D01*
X003579Y019258D02*
X003579Y019433D01*
X003813Y019433D01*
X003454Y019374D02*
X003454Y019258D01*
X003395Y019199D01*
X003220Y019199D01*
X003220Y019082D02*
X003220Y019433D01*
X003395Y019433D01*
X003454Y019374D01*
X003337Y019199D02*
X003454Y019082D01*
X003454Y020582D02*
X003337Y020699D01*
X003395Y020699D02*
X003220Y020699D01*
X003220Y020582D02*
X003220Y020933D01*
X003395Y020933D01*
X003454Y020874D01*
X003454Y020758D01*
X003395Y020699D01*
X003579Y020758D02*
X003813Y020758D01*
X003754Y020933D02*
X003754Y020582D01*
X003579Y020758D02*
X003754Y020933D01*
X003837Y022282D02*
X003779Y022341D01*
X003837Y022282D02*
X003954Y022282D01*
X004013Y022341D01*
X004013Y022399D01*
X003954Y022458D01*
X003896Y022458D01*
X003954Y022458D02*
X004013Y022516D01*
X004013Y022574D01*
X003954Y022633D01*
X003837Y022633D01*
X003779Y022574D01*
X003654Y022574D02*
X003595Y022633D01*
X003420Y022633D01*
X003420Y022282D01*
X003420Y022399D02*
X003595Y022399D01*
X003654Y022458D01*
X003654Y022574D01*
X003537Y022399D02*
X003654Y022282D01*
X003703Y025772D02*
X003780Y025849D01*
X003780Y025926D01*
X003703Y026003D01*
X003320Y026003D01*
X003320Y026079D02*
X003320Y025926D01*
X003396Y026233D02*
X003320Y026309D01*
X003320Y026463D01*
X003396Y026540D01*
X003473Y026540D01*
X003780Y026233D01*
X003780Y026540D01*
X006520Y027049D02*
X006597Y026972D01*
X006673Y026972D01*
X006750Y027049D01*
X006750Y027433D01*
X006673Y027433D02*
X006827Y027433D01*
X006980Y027203D02*
X007287Y027203D01*
X007211Y027433D02*
X007211Y026972D01*
X006980Y027203D02*
X007211Y027433D01*
X007211Y025433D02*
X007057Y025433D01*
X006980Y025356D01*
X006827Y025433D02*
X006673Y025433D01*
X006750Y025433D02*
X006750Y025049D01*
X006673Y024972D01*
X006597Y024972D01*
X006520Y025049D01*
X006980Y025049D02*
X007057Y024972D01*
X007211Y024972D01*
X007287Y025049D01*
X007287Y025126D01*
X007211Y025203D01*
X007134Y025203D01*
X007211Y025203D02*
X007287Y025279D01*
X007287Y025356D01*
X007211Y025433D01*
D13*
X009200Y016727D03*
X007600Y016627D03*
X007600Y014477D03*
X009200Y014577D03*
X017300Y018477D03*
X017300Y020627D03*
X020800Y010927D03*
X020800Y008777D03*
D14*
X018775Y022452D03*
X016625Y022452D03*
X009275Y021752D03*
X009175Y020052D03*
X009175Y018552D03*
X007025Y018552D03*
X007025Y020052D03*
X007125Y021752D03*
X005475Y021752D03*
X005275Y020052D03*
X005275Y018552D03*
X003125Y018552D03*
X003125Y020052D03*
X003325Y021752D03*
D15*
X004160Y025752D02*
X004050Y025862D01*
X004160Y025752D02*
X004550Y025752D01*
X004940Y025752D01*
X005050Y025862D01*
X004550Y025852D02*
X004550Y025752D01*
X004550Y026652D02*
X004550Y026852D01*
X004550Y027652D02*
X004550Y027852D01*
X004550Y028652D02*
X004550Y028752D01*
X004160Y028752D01*
X004050Y028642D01*
X004550Y028752D02*
X004940Y028752D01*
X005050Y028642D01*
X006610Y026702D02*
X006500Y026592D01*
X006500Y026202D01*
X006500Y025812D01*
X006610Y025702D01*
X006600Y026202D02*
X006500Y026202D01*
X007400Y026202D02*
X007600Y026202D01*
X008400Y026202D02*
X008600Y026202D01*
X009400Y026202D02*
X009500Y026202D01*
X009500Y026592D01*
X009390Y026702D01*
X009500Y026202D02*
X009500Y025812D01*
X009390Y025702D01*
X009390Y024702D02*
X009500Y024592D01*
X009500Y024202D01*
X009500Y023812D01*
X009390Y023702D01*
X009400Y024202D02*
X009500Y024202D01*
X008600Y024202D02*
X008400Y024202D01*
X007600Y024202D02*
X007400Y024202D01*
X006600Y024202D02*
X006500Y024202D01*
X006500Y023812D01*
X006610Y023702D01*
X006500Y024202D02*
X006500Y024592D01*
X006610Y024702D01*
X010450Y023862D02*
X010560Y023752D01*
X010950Y023752D01*
X011340Y023752D01*
X011450Y023862D01*
X010950Y023852D02*
X010950Y023752D01*
X011600Y023298D02*
X011600Y023140D01*
X012150Y023077D02*
X012150Y021428D01*
X012500Y021252D02*
X012500Y023252D01*
X013500Y023252D01*
X013500Y021252D01*
X012500Y021252D01*
X012150Y020577D02*
X012150Y018928D01*
X011600Y018865D02*
X011600Y018707D01*
X011600Y018298D02*
X011600Y018140D01*
X012150Y018077D02*
X012150Y016428D01*
X012500Y016252D02*
X012500Y018252D01*
X013500Y018252D01*
X013500Y016252D01*
X012500Y016252D01*
X012500Y015752D02*
X013500Y015752D01*
X013500Y013752D01*
X012500Y013752D01*
X012500Y015752D01*
X012150Y015577D02*
X012150Y013928D01*
X011600Y013865D02*
X011600Y013707D01*
X011600Y014640D02*
X011600Y014865D01*
X012150Y015577D02*
X012099Y015614D01*
X012046Y015649D01*
X011990Y015681D01*
X011933Y015709D01*
X011874Y015733D01*
X011814Y015754D01*
X011753Y015771D01*
X011691Y015785D01*
X011628Y015794D01*
X011565Y015800D01*
X011501Y015802D01*
X011437Y015800D01*
X011374Y015794D01*
X011311Y015785D01*
X011249Y015772D01*
X011188Y015754D01*
X011128Y015734D01*
X011069Y015709D01*
X011012Y015682D01*
X010956Y015650D01*
X010903Y015616D01*
X010852Y015578D01*
X010803Y015537D01*
X010757Y015493D01*
X010713Y015447D01*
X010672Y015398D01*
X010635Y015347D01*
X010600Y015293D01*
X010569Y015238D01*
X010541Y015181D01*
X010517Y015122D01*
X010497Y015062D01*
X010497Y014442D02*
X010517Y014382D01*
X010541Y014323D01*
X010569Y014266D01*
X010600Y014211D01*
X010635Y014157D01*
X010672Y014106D01*
X010713Y014057D01*
X010757Y014011D01*
X010803Y013967D01*
X010852Y013926D01*
X010903Y013888D01*
X010956Y013854D01*
X011012Y013823D01*
X011069Y013795D01*
X011128Y013770D01*
X011188Y013750D01*
X011249Y013732D01*
X011311Y013719D01*
X011374Y013710D01*
X011437Y013704D01*
X011501Y013702D01*
X011565Y013704D01*
X011628Y013710D01*
X011691Y013719D01*
X011753Y013733D01*
X011814Y013750D01*
X011874Y013771D01*
X011933Y013795D01*
X011990Y013823D01*
X012046Y013855D01*
X012099Y013890D01*
X012150Y013927D01*
X012750Y014752D02*
X013250Y014752D01*
X011600Y015640D02*
X011600Y015798D01*
X011600Y016207D02*
X011600Y016365D01*
X011600Y017140D02*
X011600Y017365D01*
X012150Y018077D02*
X012099Y018114D01*
X012046Y018149D01*
X011990Y018181D01*
X011933Y018209D01*
X011874Y018233D01*
X011814Y018254D01*
X011753Y018271D01*
X011691Y018285D01*
X011628Y018294D01*
X011565Y018300D01*
X011501Y018302D01*
X011437Y018300D01*
X011374Y018294D01*
X011311Y018285D01*
X011249Y018272D01*
X011188Y018254D01*
X011128Y018234D01*
X011069Y018209D01*
X011012Y018182D01*
X010956Y018150D01*
X010903Y018116D01*
X010852Y018078D01*
X010803Y018037D01*
X010757Y017993D01*
X010713Y017947D01*
X010672Y017898D01*
X010635Y017847D01*
X010600Y017793D01*
X010569Y017738D01*
X010541Y017681D01*
X010517Y017622D01*
X010497Y017562D01*
X010497Y016942D02*
X010517Y016882D01*
X010541Y016823D01*
X010569Y016766D01*
X010600Y016711D01*
X010635Y016657D01*
X010672Y016606D01*
X010713Y016557D01*
X010757Y016511D01*
X010803Y016467D01*
X010852Y016426D01*
X010903Y016388D01*
X010956Y016354D01*
X011012Y016323D01*
X011069Y016295D01*
X011128Y016270D01*
X011188Y016250D01*
X011249Y016232D01*
X011311Y016219D01*
X011374Y016210D01*
X011437Y016204D01*
X011501Y016202D01*
X011565Y016204D01*
X011628Y016210D01*
X011691Y016219D01*
X011753Y016233D01*
X011814Y016250D01*
X011874Y016271D01*
X011933Y016295D01*
X011990Y016323D01*
X012046Y016355D01*
X012099Y016390D01*
X012150Y016427D01*
X012750Y017252D02*
X013250Y017252D01*
X014700Y018652D02*
X014700Y020652D01*
X015700Y020652D01*
X015700Y018652D01*
X014700Y018652D01*
X014950Y019652D02*
X015450Y019652D01*
X015300Y021452D02*
X014300Y021452D01*
X014300Y023452D01*
X015300Y023452D01*
X015300Y021452D01*
X015050Y022452D02*
X014550Y022452D01*
X013250Y022252D02*
X012750Y022252D01*
X011600Y022140D02*
X011600Y022365D01*
X012150Y023077D02*
X012099Y023114D01*
X012046Y023149D01*
X011990Y023181D01*
X011933Y023209D01*
X011874Y023233D01*
X011814Y023254D01*
X011753Y023271D01*
X011691Y023285D01*
X011628Y023294D01*
X011565Y023300D01*
X011501Y023302D01*
X011437Y023300D01*
X011374Y023294D01*
X011311Y023285D01*
X011249Y023272D01*
X011188Y023254D01*
X011128Y023234D01*
X011069Y023209D01*
X011012Y023182D01*
X010956Y023150D01*
X010903Y023116D01*
X010852Y023078D01*
X010803Y023037D01*
X010757Y022993D01*
X010713Y022947D01*
X010672Y022898D01*
X010635Y022847D01*
X010600Y022793D01*
X010569Y022738D01*
X010541Y022681D01*
X010517Y022622D01*
X010497Y022562D01*
X010497Y021942D02*
X010517Y021882D01*
X010541Y021823D01*
X010569Y021766D01*
X010600Y021711D01*
X010635Y021657D01*
X010672Y021606D01*
X010713Y021557D01*
X010757Y021511D01*
X010803Y021467D01*
X010852Y021426D01*
X010903Y021388D01*
X010956Y021354D01*
X011012Y021323D01*
X011069Y021295D01*
X011128Y021270D01*
X011188Y021250D01*
X011249Y021232D01*
X011311Y021219D01*
X011374Y021210D01*
X011437Y021204D01*
X011501Y021202D01*
X011565Y021204D01*
X011628Y021210D01*
X011691Y021219D01*
X011753Y021233D01*
X011814Y021250D01*
X011874Y021271D01*
X011933Y021295D01*
X011990Y021323D01*
X012046Y021355D01*
X012099Y021390D01*
X012150Y021427D01*
X011600Y021365D02*
X011600Y021207D01*
X011600Y020798D02*
X011600Y020640D01*
X011600Y019865D02*
X011600Y019640D01*
X012150Y020577D02*
X012099Y020614D01*
X012046Y020649D01*
X011990Y020681D01*
X011933Y020709D01*
X011874Y020733D01*
X011814Y020754D01*
X011753Y020771D01*
X011691Y020785D01*
X011628Y020794D01*
X011565Y020800D01*
X011501Y020802D01*
X011437Y020800D01*
X011374Y020794D01*
X011311Y020785D01*
X011249Y020772D01*
X011188Y020754D01*
X011128Y020734D01*
X011069Y020709D01*
X011012Y020682D01*
X010956Y020650D01*
X010903Y020616D01*
X010852Y020578D01*
X010803Y020537D01*
X010757Y020493D01*
X010713Y020447D01*
X010672Y020398D01*
X010635Y020347D01*
X010600Y020293D01*
X010569Y020238D01*
X010541Y020181D01*
X010517Y020122D01*
X010497Y020062D01*
X010497Y019442D02*
X010517Y019382D01*
X010541Y019323D01*
X010569Y019266D01*
X010600Y019211D01*
X010635Y019157D01*
X010672Y019106D01*
X010713Y019057D01*
X010757Y019011D01*
X010803Y018967D01*
X010852Y018926D01*
X010903Y018888D01*
X010956Y018854D01*
X011012Y018823D01*
X011069Y018795D01*
X011128Y018770D01*
X011188Y018750D01*
X011249Y018732D01*
X011311Y018719D01*
X011374Y018710D01*
X011437Y018704D01*
X011501Y018702D01*
X011565Y018704D01*
X011628Y018710D01*
X011691Y018719D01*
X011753Y018733D01*
X011814Y018750D01*
X011874Y018771D01*
X011933Y018795D01*
X011990Y018823D01*
X012046Y018855D01*
X012099Y018890D01*
X012150Y018927D01*
X010950Y024652D02*
X010950Y024852D01*
X010950Y025652D02*
X010950Y025852D01*
X010950Y026652D02*
X010950Y026752D01*
X010560Y026752D01*
X010450Y026642D01*
X010950Y026752D02*
X011340Y026752D01*
X011450Y026642D01*
X015000Y027912D02*
X015110Y027802D01*
X015000Y027912D02*
X015000Y028302D01*
X015000Y028692D01*
X015110Y028802D01*
X015100Y028302D02*
X015000Y028302D01*
X015900Y028302D02*
X016100Y028302D01*
X016900Y028302D02*
X017100Y028302D01*
X017900Y028302D02*
X018100Y028302D01*
X018900Y028302D02*
X019000Y028302D01*
X019000Y028692D01*
X018890Y028802D01*
X019000Y028302D02*
X019000Y027912D01*
X018890Y027802D01*
X018390Y026752D02*
X018500Y026642D01*
X018390Y026752D02*
X018000Y026752D01*
X017610Y026752D01*
X017500Y026642D01*
X018000Y026652D02*
X018000Y026752D01*
X018000Y025902D02*
X018000Y025602D01*
X018000Y024852D02*
X018000Y024752D01*
X018390Y024752D01*
X018500Y024862D01*
X018000Y024752D02*
X017610Y024752D01*
X017500Y024862D01*
X016500Y024862D02*
X016390Y024752D01*
X016000Y024752D01*
X015610Y024752D01*
X015500Y024862D01*
X016000Y024852D02*
X016000Y024752D01*
X016000Y025602D02*
X016000Y025902D01*
X016000Y026652D02*
X016000Y026752D01*
X015610Y026752D01*
X015500Y026642D01*
X016000Y026752D02*
X016390Y026752D01*
X016500Y026642D01*
X017110Y017252D02*
X017000Y017142D01*
X017110Y017252D02*
X017500Y017252D01*
X017890Y017252D01*
X018000Y017142D01*
X017500Y017152D02*
X017500Y017252D01*
X017500Y016402D02*
X017500Y016102D01*
X017500Y015352D02*
X017500Y015252D01*
X017890Y015252D01*
X018000Y015362D01*
X017500Y015252D02*
X017110Y015252D01*
X017000Y015362D01*
X018600Y013602D02*
X018600Y013102D01*
X016820Y012852D02*
X016822Y012923D01*
X016828Y012994D01*
X016838Y013065D01*
X016852Y013134D01*
X016869Y013203D01*
X016891Y013271D01*
X016916Y013338D01*
X016945Y013403D01*
X016977Y013466D01*
X017013Y013528D01*
X017052Y013587D01*
X017095Y013644D01*
X017140Y013699D01*
X017189Y013751D01*
X017240Y013800D01*
X017294Y013846D01*
X017351Y013890D01*
X017409Y013930D01*
X017470Y013966D01*
X017533Y014000D01*
X017598Y014029D01*
X017664Y014055D01*
X017732Y014078D01*
X017800Y014096D01*
X017870Y014111D01*
X017940Y014122D01*
X018011Y014129D01*
X018082Y014132D01*
X018153Y014131D01*
X018224Y014126D01*
X018295Y014117D01*
X018365Y014104D01*
X018434Y014088D01*
X018502Y014067D01*
X018569Y014043D01*
X018635Y014015D01*
X018698Y013983D01*
X018760Y013948D01*
X018820Y013910D01*
X018878Y013868D01*
X018933Y013824D01*
X018986Y013776D01*
X019036Y013725D01*
X019083Y013672D01*
X019127Y013616D01*
X019168Y013558D01*
X019206Y013497D01*
X019240Y013435D01*
X019270Y013370D01*
X019297Y013305D01*
X019321Y013237D01*
X019340Y013169D01*
X019356Y013100D01*
X019368Y013029D01*
X019376Y012959D01*
X019380Y012888D01*
X019380Y012816D01*
X019376Y012745D01*
X019368Y012675D01*
X019356Y012604D01*
X019340Y012535D01*
X019321Y012467D01*
X019297Y012399D01*
X019270Y012334D01*
X019240Y012269D01*
X019206Y012207D01*
X019168Y012146D01*
X019127Y012088D01*
X019083Y012032D01*
X019036Y011979D01*
X018986Y011928D01*
X018933Y011880D01*
X018878Y011836D01*
X018820Y011794D01*
X018760Y011756D01*
X018698Y011721D01*
X018635Y011689D01*
X018569Y011661D01*
X018502Y011637D01*
X018434Y011616D01*
X018365Y011600D01*
X018295Y011587D01*
X018224Y011578D01*
X018153Y011573D01*
X018082Y011572D01*
X018011Y011575D01*
X017940Y011582D01*
X017870Y011593D01*
X017800Y011608D01*
X017732Y011626D01*
X017664Y011649D01*
X017598Y011675D01*
X017533Y011704D01*
X017470Y011738D01*
X017409Y011774D01*
X017351Y011814D01*
X017294Y011858D01*
X017240Y011904D01*
X017189Y011953D01*
X017140Y012005D01*
X017095Y012060D01*
X017052Y012117D01*
X017013Y012176D01*
X016977Y012238D01*
X016945Y012301D01*
X016916Y012366D01*
X016891Y012433D01*
X016869Y012501D01*
X016852Y012570D01*
X016838Y012639D01*
X016828Y012710D01*
X016822Y012781D01*
X016820Y012852D01*
X018560Y010952D02*
X018450Y010842D01*
X018560Y010952D02*
X018950Y010952D01*
X019340Y010952D01*
X019450Y010842D01*
X018950Y010852D02*
X018950Y010952D01*
X018950Y010052D02*
X018950Y009852D01*
X018950Y009052D02*
X018950Y008852D01*
X018950Y008052D02*
X018950Y007952D01*
X019340Y007952D01*
X019450Y008062D01*
X018950Y007952D02*
X018560Y007952D01*
X018450Y008062D01*
X016563Y007252D02*
X016563Y009355D01*
X004437Y009355D01*
X004437Y007252D01*
X003950Y006862D02*
X003840Y006752D01*
X003450Y006752D01*
X003060Y006752D01*
X002950Y006862D01*
X003450Y006852D02*
X003450Y006752D01*
X003450Y007652D02*
X003450Y007852D01*
X003450Y008652D02*
X003450Y008852D01*
X003450Y009652D02*
X003450Y009852D01*
X003450Y010652D02*
X003450Y010752D01*
X003060Y010752D01*
X002950Y010642D01*
X003450Y010752D02*
X003840Y010752D01*
X003950Y010642D01*
D16*
X010381Y007094D02*
X010404Y007071D01*
X010428Y007071D01*
X010451Y007094D01*
X010451Y007211D01*
X010428Y007211D02*
X010474Y007211D01*
X010528Y007164D02*
X010575Y007211D01*
X010575Y007071D01*
X010528Y007071D02*
X010622Y007071D01*
X010676Y007071D02*
X010769Y007071D01*
X010722Y007071D02*
X010722Y007211D01*
X010676Y007164D01*
X013797Y015320D02*
X013943Y015320D01*
X013980Y015357D01*
X013980Y015430D01*
X013943Y015467D01*
X013943Y015541D02*
X013980Y015578D01*
X013980Y015651D01*
X013943Y015688D01*
X013907Y015688D01*
X013870Y015651D01*
X013870Y015541D01*
X013943Y015541D01*
X013870Y015541D02*
X013797Y015615D01*
X013760Y015688D01*
X013797Y015467D02*
X013760Y015430D01*
X013760Y015357D01*
X013797Y015320D01*
X013797Y017820D02*
X013943Y017820D01*
X013980Y017857D01*
X013980Y017930D01*
X013943Y017967D01*
X013943Y018041D02*
X013980Y018078D01*
X013980Y018151D01*
X013943Y018188D01*
X013870Y018188D01*
X013833Y018151D01*
X013833Y018115D01*
X013870Y018041D01*
X013760Y018041D01*
X013760Y018188D01*
X013797Y017967D02*
X013760Y017930D01*
X013760Y017857D01*
X013797Y017820D01*
X015997Y020220D02*
X015960Y020257D01*
X015960Y020330D01*
X015997Y020367D01*
X016033Y020441D02*
X015960Y020515D01*
X016180Y020515D01*
X016180Y020588D02*
X016180Y020441D01*
X016143Y020367D02*
X016180Y020330D01*
X016180Y020257D01*
X016143Y020220D01*
X015997Y020220D01*
X015743Y023020D02*
X015780Y023057D01*
X015780Y023130D01*
X015743Y023167D01*
X015780Y023241D02*
X015633Y023388D01*
X015597Y023388D01*
X015560Y023351D01*
X015560Y023278D01*
X015597Y023241D01*
X015597Y023167D02*
X015560Y023130D01*
X015560Y023057D01*
X015597Y023020D01*
X015743Y023020D01*
X015780Y023241D02*
X015780Y023388D01*
X013980Y023151D02*
X013980Y023078D01*
X013943Y023041D01*
X013943Y022967D02*
X013980Y022930D01*
X013980Y022857D01*
X013943Y022820D01*
X013797Y022820D01*
X013760Y022857D01*
X013760Y022930D01*
X013797Y022967D01*
X013797Y023041D02*
X013760Y023078D01*
X013760Y023151D01*
X013797Y023188D01*
X013833Y023188D01*
X013870Y023151D01*
X013907Y023188D01*
X013943Y023188D01*
X013980Y023151D01*
X013870Y023151D02*
X013870Y023115D01*
X011240Y023536D02*
X011217Y023512D01*
X011123Y023512D01*
X011100Y023536D01*
X011100Y023582D01*
X011123Y023606D01*
X011217Y023606D01*
X011240Y023582D01*
X011240Y023536D01*
X011193Y023559D02*
X011240Y023606D01*
X011240Y023660D02*
X011240Y023753D01*
X011240Y023706D02*
X011100Y023706D01*
X011147Y023660D01*
X011147Y021253D02*
X011123Y021253D01*
X011100Y021230D01*
X011100Y021183D01*
X011123Y021160D01*
X011123Y021106D02*
X011217Y021106D01*
X011240Y021082D01*
X011240Y021036D01*
X011217Y021012D01*
X011123Y021012D01*
X011100Y021036D01*
X011100Y021082D01*
X011123Y021106D01*
X011193Y021059D02*
X011240Y021106D01*
X011240Y021160D02*
X011147Y021253D01*
X011240Y021253D02*
X011240Y021160D01*
X011217Y018753D02*
X011240Y018730D01*
X011240Y018683D01*
X011217Y018660D01*
X011217Y018606D02*
X011240Y018582D01*
X011240Y018536D01*
X011217Y018512D01*
X011123Y018512D01*
X011100Y018536D01*
X011100Y018582D01*
X011123Y018606D01*
X011217Y018606D01*
X011240Y018606D02*
X011193Y018559D01*
X011123Y018660D02*
X011100Y018683D01*
X011100Y018730D01*
X011123Y018753D01*
X011147Y018753D01*
X011170Y018730D01*
X011193Y018753D01*
X011217Y018753D01*
X011170Y018730D02*
X011170Y018706D01*
X011170Y016253D02*
X011170Y016160D01*
X011100Y016230D01*
X011240Y016230D01*
X011240Y016106D02*
X011193Y016059D01*
X011240Y016036D02*
X011217Y016012D01*
X011123Y016012D01*
X011100Y016036D01*
X011100Y016082D01*
X011123Y016106D01*
X011217Y016106D01*
X011240Y016082D01*
X011240Y016036D01*
D17*
X018755Y013110D02*
X018780Y013110D01*
X018880Y013010D01*
X018905Y013010D01*
X018880Y012963D02*
X018905Y012938D01*
X018905Y012888D01*
X018880Y012863D01*
X018780Y012863D01*
X018755Y012888D01*
X018755Y012938D01*
X018780Y012963D01*
X018755Y013010D02*
X018755Y013110D01*
M02*
