G75*
%MOIN*%
%OFA0B0*%
%FSLAX24Y24*%
%IPPOS*%
%LPD*%
%AMOC8*
5,1,8,0,0,1.08239X$1,22.5*
%
%ADD10OC8,0.0560*%
%ADD11C,0.0650*%
%ADD12C,0.0740*%
%ADD13R,0.0650X0.0650*%
%ADD14R,0.0740X0.0740*%
%ADD15C,0.2000*%
%ADD16C,0.0640*%
%ADD17C,0.0100*%
D10*
X004000Y015752D03*
X005000Y015752D03*
X006500Y015752D03*
X007500Y015752D03*
X007500Y017752D03*
X006500Y017752D03*
X006500Y019752D03*
X007500Y019752D03*
X007500Y021752D03*
X006500Y021752D03*
X005000Y021752D03*
X004000Y021752D03*
X004000Y019752D03*
X005000Y019752D03*
X005000Y017752D03*
X004000Y017752D03*
X017500Y020252D03*
X018500Y020252D03*
X018500Y022752D03*
X017500Y022752D03*
X018500Y013252D03*
X019500Y013252D03*
D11*
X017500Y011252D03*
X013000Y014252D03*
X013000Y015252D03*
X013000Y016752D03*
X013000Y017752D03*
X013000Y019252D03*
X013000Y020252D03*
X013000Y021752D03*
X013000Y022752D03*
X015000Y022752D03*
X016000Y022752D03*
X016000Y020252D03*
X015000Y020252D03*
D12*
X011500Y020252D03*
X010750Y019752D03*
X011500Y019252D03*
X011500Y017752D03*
X010750Y017252D03*
X011500Y016752D03*
X011500Y015252D03*
X010750Y014752D03*
X011500Y014252D03*
X011591Y008811D03*
X012134Y007693D03*
X011043Y007693D03*
X010500Y008811D03*
X009957Y007693D03*
X009409Y008811D03*
X008866Y007693D03*
X008319Y008811D03*
X001500Y010252D03*
X001500Y011252D03*
X001500Y012252D03*
X001500Y013252D03*
X001500Y014252D03*
X001500Y015252D03*
X001500Y016252D03*
X001500Y017252D03*
X001500Y018252D03*
X001500Y019252D03*
X001500Y020752D03*
X001500Y021752D03*
X001500Y022752D03*
X001500Y023752D03*
X001500Y024752D03*
X001500Y025752D03*
X001500Y026752D03*
X001500Y027752D03*
X010750Y022252D03*
X011500Y021752D03*
X011500Y022752D03*
X020500Y022752D03*
X020500Y023752D03*
X020500Y024752D03*
X020500Y025752D03*
X020500Y026752D03*
X020500Y027752D03*
X020500Y020752D03*
X020500Y019752D03*
X020500Y018752D03*
X020500Y017752D03*
X020500Y016752D03*
X020500Y015752D03*
X020500Y014752D03*
X020500Y013752D03*
D13*
X017500Y010252D03*
D14*
X012681Y008811D03*
D15*
X015421Y008252D03*
X005579Y008252D03*
D16*
X003820Y008252D02*
X003180Y008252D01*
X003080Y007252D02*
X003720Y007252D01*
X003720Y009252D02*
X003080Y009252D01*
X003180Y010252D02*
X003820Y010252D01*
X007000Y023932D02*
X007000Y024572D01*
X007000Y025932D02*
X007000Y026572D01*
X008000Y026472D02*
X008000Y025832D01*
X009000Y025932D02*
X009000Y026572D01*
X009000Y024572D02*
X009000Y023932D01*
X008000Y023832D02*
X008000Y024472D01*
X010580Y025252D02*
X011220Y025252D01*
X011320Y024252D02*
X010680Y024252D01*
X010680Y026252D02*
X011320Y026252D01*
X015500Y028032D02*
X015500Y028672D01*
X016500Y028572D02*
X016500Y027932D01*
X017500Y028032D02*
X017500Y028672D01*
X018500Y028572D02*
X018500Y027932D01*
X018320Y026302D02*
X017680Y026302D01*
X017680Y025202D02*
X018320Y025202D01*
X016320Y025202D02*
X015680Y025202D01*
X015680Y026302D02*
X016320Y026302D01*
X017180Y016802D02*
X017820Y016802D01*
X017820Y015702D02*
X017180Y015702D01*
X019180Y010752D02*
X019820Y010752D01*
X019920Y009752D02*
X019280Y009752D01*
X019180Y008752D02*
X019820Y008752D01*
X004920Y027252D02*
X004280Y027252D01*
X004180Y028252D02*
X004820Y028252D01*
X004820Y026252D02*
X004180Y026252D01*
D17*
X005000Y006752D02*
X016000Y006752D01*
X017000Y008252D01*
X018500Y010252D01*
X020000Y010252D01*
X020500Y010752D01*
X018500Y012752D01*
X018000Y012752D01*
X018000Y014752D01*
X019500Y013252D01*
X018500Y013252D02*
X021000Y010752D01*
X021000Y008752D01*
X019500Y008752D01*
X019600Y009752D02*
X019000Y009752D01*
X018500Y009252D01*
X018500Y007752D01*
X021300Y007752D01*
X021300Y015752D01*
X020500Y015752D01*
X017500Y015752D01*
X017500Y015702D01*
X018000Y014752D02*
X016500Y014752D01*
X016500Y016252D01*
X019000Y016252D01*
X020500Y017752D01*
X021300Y018752D01*
X021300Y029752D01*
X014500Y029752D01*
X014500Y027252D01*
X017500Y027252D01*
X017500Y028352D01*
X016500Y028252D02*
X016500Y029252D01*
X018500Y029252D01*
X019500Y028252D01*
X019500Y026752D01*
X020500Y026752D01*
X020500Y025752D02*
X018500Y025752D01*
X018000Y025252D01*
X018000Y025202D01*
X018000Y026252D02*
X018000Y026302D01*
X018000Y026252D02*
X018500Y026252D01*
X018500Y028252D01*
X018500Y029552D02*
X020500Y027752D01*
X018500Y029552D02*
X015500Y029552D01*
X015500Y028352D01*
X016000Y026302D02*
X016000Y026252D01*
X014000Y026252D01*
X014000Y025252D01*
X010900Y025252D01*
X011000Y024252D02*
X010000Y023252D01*
X008500Y023252D01*
X008000Y023752D01*
X008000Y024152D01*
X008500Y024752D02*
X009000Y024752D01*
X010000Y025752D01*
X012000Y025752D01*
X012000Y027752D01*
X007000Y027752D01*
X004000Y024752D01*
X002500Y024752D01*
X001500Y023752D01*
X001500Y022752D02*
X002500Y022752D01*
X007000Y027252D01*
X008000Y027252D01*
X009000Y026252D01*
X009000Y025252D02*
X008500Y025252D01*
X008000Y025752D01*
X008000Y026152D01*
X008000Y025252D02*
X007500Y025252D01*
X007000Y025752D01*
X007000Y026252D01*
X008000Y025252D02*
X008500Y024752D01*
X009000Y024252D01*
X009000Y025252D02*
X010000Y026252D01*
X011000Y026252D01*
X013000Y026252D02*
X013000Y028752D01*
X006500Y028752D01*
X005000Y027252D01*
X004600Y027252D01*
X004500Y028252D02*
X002000Y025752D01*
X001500Y025752D01*
X002000Y025252D02*
X001500Y024752D01*
X002000Y025252D02*
X003500Y025252D01*
X004500Y026252D01*
X007000Y024252D02*
X005500Y022752D01*
X002500Y022752D01*
X001500Y021752D02*
X004000Y021752D01*
X005000Y021752D02*
X006500Y021752D01*
X007000Y022252D01*
X010750Y022252D01*
X011500Y021752D02*
X011000Y021252D01*
X008000Y021252D01*
X007500Y021752D01*
X007000Y020252D02*
X006500Y019752D01*
X005000Y019752D01*
X004000Y019752D02*
X003000Y020752D01*
X001500Y020752D01*
X001500Y019252D02*
X002500Y019252D01*
X004000Y017752D01*
X004500Y018252D02*
X004500Y017252D01*
X005000Y017252D01*
X006000Y016252D01*
X007000Y016252D01*
X007500Y015752D01*
X008000Y016252D01*
X011000Y016252D01*
X011500Y016752D01*
X013000Y016752D01*
X013500Y016752D01*
X013500Y014752D01*
X013000Y014252D01*
X012500Y014252D02*
X012500Y015252D01*
X013000Y015252D01*
X012500Y015252D02*
X011500Y015252D01*
X010750Y014752D02*
X010500Y014752D01*
X010000Y015252D01*
X007000Y015252D01*
X006500Y015752D01*
X005000Y015752D01*
X004500Y016252D02*
X004500Y013252D01*
X010500Y013252D01*
X011500Y014252D01*
X012500Y014252D02*
X011000Y012752D01*
X007500Y012752D01*
X007500Y008752D01*
X008000Y008252D01*
X010000Y008252D01*
X010500Y008752D01*
X010500Y008811D01*
X010000Y007752D02*
X009957Y007693D01*
X010000Y007752D02*
X009000Y007752D01*
X008866Y007693D01*
X008500Y007752D01*
X008000Y007752D01*
X005500Y010252D01*
X003500Y010252D01*
X003500Y013252D01*
X004500Y013252D01*
X003500Y013252D02*
X001500Y013252D01*
X001500Y011252D02*
X003000Y009752D01*
X004500Y009752D01*
X004500Y009252D01*
X003500Y008252D01*
X003000Y008752D02*
X002500Y008252D01*
X002500Y007752D01*
X004000Y007752D01*
X005000Y006752D01*
X003400Y007252D02*
X002500Y007252D01*
X001500Y008252D01*
X001500Y010252D01*
X003000Y009252D02*
X003000Y008752D01*
X003000Y009252D02*
X003400Y009252D01*
X004000Y015752D02*
X001500Y018252D01*
X004500Y018252D02*
X007500Y018252D01*
X007500Y017752D01*
X007500Y018252D02*
X007500Y018752D01*
X011000Y018752D01*
X011500Y019252D01*
X013000Y019252D01*
X014000Y019252D01*
X015000Y020252D01*
X015000Y022752D01*
X015000Y023252D01*
X014000Y023252D01*
X014000Y025252D01*
X014000Y026252D02*
X013000Y026252D01*
X014000Y023252D02*
X014000Y021752D01*
X013000Y021752D01*
X011500Y021752D01*
X011500Y022752D02*
X013000Y022752D01*
X013000Y020252D02*
X011500Y020252D01*
X010750Y019752D02*
X010500Y019752D01*
X010000Y020252D01*
X007000Y020252D01*
X007500Y019752D02*
X007500Y018752D01*
X006500Y017752D02*
X007000Y017252D01*
X010750Y017252D01*
X011500Y017752D02*
X013000Y017752D01*
X014000Y017752D01*
X014000Y014252D01*
X008500Y008752D01*
X008319Y008811D01*
X012134Y007693D02*
X012500Y007752D01*
X013000Y007752D01*
X015500Y010252D01*
X015500Y019252D01*
X016500Y020252D01*
X017500Y020252D01*
X018000Y019752D02*
X018000Y023252D01*
X015000Y023252D01*
X015500Y022752D02*
X016000Y022752D01*
X017500Y022752D01*
X018500Y022752D02*
X019500Y023752D01*
X020500Y023752D01*
X020500Y022752D02*
X020500Y022252D01*
X018500Y020252D01*
X018500Y019752D02*
X018000Y019752D01*
X018500Y019752D02*
X019500Y018752D01*
X020500Y018752D01*
X020500Y019752D01*
X019500Y018752D02*
X017500Y016752D01*
X017500Y016802D01*
X017500Y016752D02*
X016000Y016752D01*
X016000Y014252D01*
X017500Y014252D01*
X017500Y011252D01*
X018000Y010752D02*
X017500Y010252D01*
X018000Y010752D02*
X019500Y010752D01*
X015000Y014752D02*
X015000Y019752D01*
X015500Y019752D01*
X015500Y022752D01*
X016000Y024252D02*
X019500Y024252D01*
X019500Y024752D01*
X020500Y024752D01*
X018000Y026252D02*
X016000Y026252D01*
X016000Y025252D02*
X016000Y025202D01*
X016000Y024252D01*
X016000Y020252D02*
X016500Y020252D01*
X015000Y014752D02*
X013000Y012752D01*
X013000Y008752D01*
X012681Y008811D01*
X006500Y017752D02*
X005000Y017752D01*
X004500Y016252D02*
X006000Y016252D01*
M02*
