%
M48
M72
T01C0.0276
T02C0.0320
T03C0.0400
T04C0.1300
%
T01
X13000Y14252
X13000Y15252
X13000Y16752
X13000Y17752
X13000Y19252
X13000Y20252
X13000Y21752
X13000Y22752
X15000Y22752
X16000Y22752
X16000Y20252
X15000Y20252
X17500Y11252
X17500Y10252
T02
X18500Y13252
X19500Y13252
X18500Y20252
X17500Y20252
X17500Y22752
X18500Y22752
X11500Y22752
X10750Y22252
X11500Y21752
X11500Y20252
X11500Y19252
X10750Y19752
X11500Y17752
X10750Y17252
X11500Y16752
X11500Y15252
X11500Y14252
X10750Y14752
X7500Y15752
X6500Y15752
X5000Y15752
X4000Y15752
X4000Y17752
X5000Y17752
X6500Y17752
X7500Y17752
X7500Y19752
X6500Y19752
X5000Y19752
X4000Y19752
X4000Y21752
X5000Y21752
X6500Y21752
X7500Y21752
T03
X3400Y7252
X3500Y8252
X3400Y9252
X3500Y10252
X1500Y10252
X1500Y11252
X1500Y12252
X1500Y13252
X1500Y14252
X1500Y15252
X1500Y16252
X1500Y17252
X1500Y18252
X1500Y19252
X1500Y20752
X1500Y21752
X1500Y22752
X1500Y23752
X1500Y24752
X1500Y25752
X1500Y26752
X1500Y27752
X4500Y28252
X4600Y27252
X4500Y26252
X7000Y26252
X8000Y26152
X9000Y26252
X9000Y24252
X8000Y24152
X7000Y24252
X11000Y24252
X10900Y25252
X11000Y26252
X15500Y27852
X16500Y27752
X17500Y27852
X18500Y27752
X18000Y26302
X18000Y25202
X16000Y25202
X16000Y26302
X20500Y26752
X20500Y25752
X20500Y24752
X20500Y23752
X20500Y22752
X20500Y20752
X20500Y19752
X20500Y18752
X20500Y17752
X20500Y16752
X20500Y15752
X20500Y14752
X20500Y13752
X19500Y10752
X19600Y9752
X19500Y8752
X17500Y15702
X17500Y16802
X12681Y8811
X12134Y7693
X11591Y8811
X11043Y7693
X10500Y8811
X9957Y7693
X9409Y8811
X8866Y7693
X8319Y8811
X20500Y27752
T04
X15421Y8252
X5579Y8252
M30
