%
M48
M72
T01C0.0276
T02C0.0320
T03C0.0400
T04C0.1300
%
T01
X13000Y14252
X13000Y15252
X13000Y16752
X13000Y17752
X13000Y19252
X13000Y20252
X13000Y21752
X13000Y22752
X14800Y22952
X14800Y21952
X15200Y20152
X15200Y19152
X18100Y13352
X18100Y12352
T02
X20800Y11352
X20800Y8352
X17300Y18052
X17300Y21052
X16200Y22452
X19200Y22452
X11500Y22752
X10750Y22252
X11500Y21752
X11500Y20252
X10750Y19752
X11500Y19252
X11500Y17752
X10750Y17252
X11500Y16752
X11500Y15252
X10750Y14752
X11500Y14252
X9200Y14152
X7600Y14052
X7600Y17052
X6600Y18552
X5700Y18552
X5700Y20052
X6600Y20052
X6700Y21752
X5900Y21752
X2900Y21752
X2700Y20052
X2700Y18552
X9200Y17152
X9600Y18552
X9600Y20052
X9700Y21752
T03
X3400Y7252
X3500Y8252
X3400Y9252
X3500Y10252
X1500Y10252
X1500Y11252
X1500Y12252
X1500Y13252
X1500Y14252
X1500Y15252
X1500Y16252
X1500Y17252
X1500Y18252
X1500Y19252
X1500Y20752
X1500Y21752
X1500Y22752
X1500Y23752
X1500Y24752
X1500Y25752
X1500Y26752
X1500Y27752
X4500Y28252
X4600Y27252
X4500Y26252
X7000Y26252
X8000Y26152
X9000Y26252
X9000Y24252
X8000Y24152
X7000Y24252
X11000Y24252
X10900Y25252
X11000Y26252
X15500Y28352
X16500Y28252
X17500Y28352
X18500Y28252
X18000Y26302
X18000Y25202
X16000Y25202
X16000Y26302
X20500Y26752
X20500Y25752
X20500Y24752
X20500Y23752
X20500Y22752
X20500Y20752
X20500Y19752
X20500Y18752
X20500Y17752
X20500Y16752
X20500Y15752
X20500Y14752
X20500Y13752
X18900Y10452
X19000Y9452
X18900Y8452
X17500Y15702
X17500Y16802
X12681Y8811
X12134Y7693
X11591Y8811
X11043Y7693
X10500Y8811
X9957Y7693
X9409Y8811
X8866Y7693
X8319Y8811
X20500Y27752
T04
X15421Y8252
X5579Y8252
M30
