G75*
%MOIN*%
%OFA0B0*%
%FSLAX24Y24*%
%IPPOS*%
%LPD*%
%AMOC8*
5,1,8,0,0,1.08239X$1,22.5*
%
%ADD10OC8,0.0560*%
%ADD11C,0.0650*%
%ADD12C,0.0740*%
%ADD13R,0.0650X0.0650*%
%ADD14R,0.0740X0.0740*%
%ADD15C,0.2000*%
%ADD16C,0.0640*%
%ADD17C,0.0100*%
%ADD18C,0.0160*%
D10*
X007600Y014052D03*
X009200Y014152D03*
X009200Y017152D03*
X009600Y018552D03*
X009600Y020052D03*
X009700Y021752D03*
X006700Y021752D03*
X005900Y021752D03*
X005700Y020052D03*
X006600Y020052D03*
X006600Y018552D03*
X005700Y018552D03*
X007600Y017052D03*
X002900Y021752D03*
X002700Y020052D03*
X002700Y018552D03*
X016200Y022452D03*
X017300Y021052D03*
X019200Y022452D03*
X017300Y018052D03*
X020800Y011352D03*
X020800Y008352D03*
D11*
X018100Y013352D03*
X015200Y019152D03*
X015200Y020152D03*
X014800Y021952D03*
X014800Y022952D03*
X013000Y022752D03*
X013000Y021752D03*
X013000Y020252D03*
X013000Y019252D03*
X013000Y017752D03*
X013000Y016752D03*
X013000Y015252D03*
X013000Y014252D03*
D12*
X011500Y014252D03*
X010750Y014752D03*
X011500Y015252D03*
X011500Y016752D03*
X010750Y017252D03*
X011500Y017752D03*
X011500Y019252D03*
X010750Y019752D03*
X011500Y020252D03*
X011500Y021752D03*
X010750Y022252D03*
X011500Y022752D03*
X020500Y022752D03*
X020500Y023752D03*
X020500Y024752D03*
X020500Y025752D03*
X020500Y026752D03*
X020500Y027752D03*
X020500Y020752D03*
X020500Y019752D03*
X020500Y018752D03*
X020500Y017752D03*
X020500Y016752D03*
X020500Y015752D03*
X020500Y014752D03*
X020500Y013752D03*
X012134Y007693D03*
X011591Y008811D03*
X011043Y007693D03*
X010500Y008811D03*
X009957Y007693D03*
X009409Y008811D03*
X008866Y007693D03*
X008319Y008811D03*
X001500Y010252D03*
X001500Y011252D03*
X001500Y012252D03*
X001500Y013252D03*
X001500Y014252D03*
X001500Y015252D03*
X001500Y016252D03*
X001500Y017252D03*
X001500Y018252D03*
X001500Y019252D03*
X001500Y020752D03*
X001500Y021752D03*
X001500Y022752D03*
X001500Y023752D03*
X001500Y024752D03*
X001500Y025752D03*
X001500Y026752D03*
X001500Y027752D03*
D13*
X018100Y012352D03*
D14*
X012681Y008811D03*
D15*
X015421Y008252D03*
X005579Y008252D03*
D16*
X003820Y008252D02*
X003180Y008252D01*
X003080Y007252D02*
X003720Y007252D01*
X003720Y009252D02*
X003080Y009252D01*
X003180Y010252D02*
X003820Y010252D01*
X007000Y023932D02*
X007000Y024572D01*
X007000Y025932D02*
X007000Y026572D01*
X008000Y026472D02*
X008000Y025832D01*
X009000Y025932D02*
X009000Y026572D01*
X009000Y024572D02*
X009000Y023932D01*
X008000Y023832D02*
X008000Y024472D01*
X010580Y025252D02*
X011220Y025252D01*
X011320Y024252D02*
X010680Y024252D01*
X010680Y026252D02*
X011320Y026252D01*
X015500Y028032D02*
X015500Y028672D01*
X016500Y028572D02*
X016500Y027932D01*
X017500Y028032D02*
X017500Y028672D01*
X018500Y028572D02*
X018500Y027932D01*
X018320Y026302D02*
X017680Y026302D01*
X017680Y025202D02*
X018320Y025202D01*
X016320Y025202D02*
X015680Y025202D01*
X015680Y026302D02*
X016320Y026302D01*
X017180Y016802D02*
X017820Y016802D01*
X017820Y015702D02*
X017180Y015702D01*
X018580Y010452D02*
X019220Y010452D01*
X019320Y009452D02*
X018680Y009452D01*
X018580Y008452D02*
X019220Y008452D01*
X004920Y027252D02*
X004280Y027252D01*
X004180Y028252D02*
X004820Y028252D01*
X004820Y026252D02*
X004180Y026252D01*
D17*
X005000Y006752D02*
X020000Y006752D01*
X021500Y008252D01*
X021500Y011252D01*
X021000Y011252D01*
X020800Y011352D01*
X021000Y011252D02*
X021000Y013252D01*
X021500Y013752D01*
X021500Y017752D01*
X021500Y027752D01*
X019000Y030252D01*
X015000Y030252D01*
X015000Y027752D01*
X015500Y027252D01*
X016500Y027252D01*
X017500Y028252D01*
X017500Y028352D01*
X016500Y028252D02*
X016500Y029252D01*
X018500Y029252D01*
X019500Y028252D01*
X019500Y026752D01*
X020500Y026752D01*
X020500Y025752D02*
X018500Y025752D01*
X018000Y025252D01*
X018000Y025202D01*
X018000Y026252D02*
X018000Y026302D01*
X018000Y026252D02*
X018500Y026252D01*
X018500Y028252D01*
X018500Y029752D02*
X020500Y027752D01*
X018500Y029752D02*
X016500Y029752D01*
X015500Y028752D01*
X015500Y028352D01*
X016000Y026302D02*
X016000Y026252D01*
X018000Y026252D01*
X017000Y024252D02*
X020000Y024252D01*
X020500Y024752D01*
X020500Y023752D02*
X019700Y023752D01*
X019200Y023252D01*
X019200Y022452D01*
X018500Y023752D02*
X016500Y023752D01*
X016000Y024252D01*
X013500Y024252D01*
X013500Y021752D01*
X013000Y021752D01*
X011500Y021752D01*
X011000Y021252D01*
X009500Y021252D01*
X009500Y020752D01*
X004500Y020752D01*
X004500Y019252D01*
X004500Y017752D01*
X008000Y017752D01*
X008500Y017252D01*
X009000Y017252D01*
X009200Y017152D01*
X009000Y017252D02*
X009500Y016752D01*
X009500Y016252D01*
X009000Y015752D01*
X007000Y015752D01*
X007000Y013752D01*
X007500Y013252D01*
X009000Y013252D01*
X009500Y013752D01*
X011000Y013752D01*
X011500Y014252D01*
X011500Y012752D01*
X003000Y012752D01*
X003000Y010752D01*
X003500Y010252D01*
X007000Y010252D01*
X007000Y008252D01*
X007500Y007752D01*
X008500Y007752D01*
X008866Y007693D01*
X009000Y007752D01*
X010000Y007752D01*
X009957Y007693D01*
X010000Y008252D02*
X008000Y008252D01*
X007500Y008752D01*
X007500Y012252D01*
X011500Y012252D01*
X012500Y013252D01*
X012500Y015252D01*
X013000Y015252D01*
X012500Y015252D02*
X011500Y015252D01*
X010750Y014752D02*
X010500Y014752D01*
X010000Y014252D01*
X009000Y014252D01*
X009200Y014152D01*
X009000Y014252D02*
X007500Y014252D01*
X007600Y014052D01*
X009500Y016752D02*
X010500Y016752D01*
X011000Y016252D01*
X011500Y016252D01*
X012000Y016752D01*
X011500Y016752D01*
X012000Y016752D02*
X013000Y016752D01*
X014000Y016752D01*
X014000Y014752D01*
X013500Y014252D01*
X013000Y014252D01*
X014500Y014752D02*
X014500Y017752D01*
X013000Y017752D01*
X011500Y017752D01*
X010750Y017252D02*
X010000Y017252D01*
X009000Y018252D01*
X007000Y018252D01*
X006500Y018752D01*
X006600Y018552D01*
X007000Y019752D02*
X009000Y019752D01*
X009500Y019252D01*
X010000Y019252D01*
X010500Y019752D01*
X010750Y019752D01*
X011500Y019252D02*
X012000Y019252D01*
X013000Y019252D01*
X013000Y020252D02*
X015000Y018252D01*
X015000Y014752D01*
X011500Y011252D01*
X011500Y008752D01*
X011591Y008811D01*
X012134Y007693D02*
X012500Y007752D01*
X013000Y007752D01*
X015000Y009752D01*
X016000Y009752D01*
X016000Y016752D01*
X017000Y017752D01*
X017300Y018052D01*
X017000Y017752D02*
X018000Y017752D01*
X018000Y021752D01*
X016000Y023752D01*
X014000Y023752D01*
X014000Y021752D01*
X014500Y021252D01*
X014500Y020752D01*
X015000Y020252D01*
X015200Y020152D01*
X015000Y020752D02*
X015500Y020752D01*
X016000Y020252D01*
X016000Y019252D01*
X015500Y019252D01*
X015200Y019152D01*
X015000Y019252D01*
X014500Y019252D01*
X014000Y019752D01*
X014000Y021252D01*
X013500Y021752D01*
X013000Y022752D02*
X011500Y022752D01*
X010750Y022252D02*
X007000Y022252D01*
X006500Y021752D01*
X006700Y021752D01*
X006500Y021752D02*
X005900Y021752D01*
X005500Y022752D02*
X002500Y022752D01*
X007000Y027252D01*
X008000Y027252D01*
X009000Y026252D01*
X009000Y025252D02*
X008500Y025252D01*
X008000Y025752D01*
X008000Y026152D01*
X008000Y025252D02*
X007500Y025252D01*
X007000Y025752D01*
X007000Y026252D01*
X008000Y025252D02*
X008500Y024752D01*
X009000Y024752D01*
X010000Y025752D01*
X012000Y025752D01*
X012000Y026252D01*
X010500Y027752D01*
X007000Y027752D01*
X004000Y024752D01*
X002500Y024752D01*
X001500Y023752D01*
X001500Y022752D02*
X002500Y022752D01*
X002900Y021752D02*
X003000Y021752D01*
X002900Y021752D02*
X001500Y021752D01*
X001500Y020752D02*
X002200Y020052D01*
X002700Y020052D01*
X001500Y019252D02*
X002200Y018552D01*
X002700Y018552D01*
X001500Y018252D02*
X002500Y017252D01*
X007500Y017252D01*
X007600Y017052D01*
X009500Y018752D02*
X009000Y019252D01*
X004500Y019252D01*
X006500Y020252D02*
X006600Y020052D01*
X006500Y020252D02*
X007000Y019752D01*
X005500Y022752D02*
X007000Y024252D01*
X008000Y024152D02*
X008000Y023752D01*
X008500Y023252D01*
X010000Y023252D01*
X011000Y024252D01*
X010900Y025252D02*
X012500Y025252D01*
X012500Y024752D01*
X013000Y024252D01*
X013500Y024252D01*
X012500Y025252D02*
X012500Y026252D01*
X012500Y026352D01*
X011300Y027552D01*
X010500Y028252D01*
X006500Y028252D01*
X005500Y027252D01*
X004600Y027252D01*
X004500Y028252D02*
X002000Y025752D01*
X001500Y025752D01*
X002000Y025252D02*
X001500Y024752D01*
X002000Y025252D02*
X003500Y025252D01*
X004500Y026252D01*
X008500Y024752D02*
X009000Y024252D01*
X009000Y025252D02*
X010000Y026252D01*
X011000Y026252D01*
X012500Y026252D02*
X016000Y026252D01*
X016000Y025252D02*
X016000Y025202D01*
X016000Y025252D02*
X017000Y024252D01*
X016200Y022452D02*
X015750Y022002D01*
X014800Y022952D01*
X014800Y021952D02*
X015000Y021752D01*
X015000Y020752D01*
X015750Y022002D02*
X016500Y021252D01*
X016500Y017752D01*
X015500Y016752D01*
X015500Y010252D01*
X014500Y010252D01*
X013000Y008752D01*
X012681Y008811D01*
X010500Y008752D02*
X010500Y008811D01*
X010500Y008752D02*
X010000Y008252D01*
X008500Y008752D02*
X008319Y008811D01*
X008500Y008752D02*
X014500Y014752D01*
X016500Y014752D02*
X016500Y016752D01*
X017500Y016752D01*
X017500Y016802D01*
X017500Y016752D02*
X018500Y016752D01*
X019000Y017252D01*
X019000Y018752D01*
X020500Y018752D01*
X020500Y019752D01*
X019000Y019752D01*
X018500Y020252D01*
X018500Y023752D01*
X020500Y017752D02*
X021500Y017752D01*
X020500Y015752D02*
X019000Y014252D01*
X020000Y013252D01*
X020000Y010252D01*
X019500Y009752D01*
X019000Y009752D01*
X019000Y009452D01*
X018900Y008452D02*
X019000Y008252D01*
X021000Y008252D01*
X020800Y008352D01*
X018900Y010452D02*
X018500Y010752D01*
X018500Y012252D01*
X018000Y012252D01*
X018100Y012352D01*
X018000Y013252D02*
X018100Y013352D01*
X018000Y013252D02*
X018000Y014252D01*
X017000Y014252D01*
X016500Y014752D01*
X017500Y015702D02*
X017500Y015752D01*
X019000Y014252D01*
X013000Y020252D02*
X011500Y020252D01*
X012000Y019252D02*
X011500Y018752D01*
X009500Y018752D01*
X009600Y018552D01*
X009600Y020052D02*
X009500Y020252D01*
X009500Y020752D01*
X009500Y021252D02*
X009500Y021752D01*
X009700Y021752D01*
X003000Y013252D02*
X003000Y012752D01*
X003000Y013252D02*
X001500Y013252D01*
X001500Y011252D02*
X003000Y009752D01*
X004500Y009752D01*
X004500Y009252D01*
X003500Y008252D01*
X003000Y008752D02*
X002500Y008252D01*
X002500Y007752D01*
X004000Y007752D01*
X005000Y006752D01*
X003400Y007252D02*
X002500Y007252D01*
X001500Y008252D01*
X001500Y010252D01*
X003000Y009252D02*
X003000Y008752D01*
X003000Y009252D02*
X003400Y009252D01*
D18*
X005700Y018552D02*
X006600Y018552D01*
X006600Y020052D02*
X005700Y020052D01*
M02*
