G75*
%MOIN*%
%OFA0B0*%
%FSLAX24Y24*%
%IPPOS*%
%LPD*%
%AMOC8*
5,1,8,0,0,1.08239X$1,22.5*
%
%ADD10OC8,0.0560*%
%ADD11C,0.0707*%
%ADD12C,0.0721*%
%ADD13C,0.0316*%
%ADD14C,0.0806*%
%ADD15C,0.0690*%
%ADD16R,0.0690X0.0690*%
%ADD17C,0.0780*%
%ADD18R,0.0780X0.0780*%
%ADD19C,0.2040*%
%ADD20C,0.0640*%
D10*
X004000Y015752D03*
X005000Y015752D03*
X006500Y015752D03*
X007500Y015752D03*
X007500Y017752D03*
X006500Y017752D03*
X005000Y017752D03*
X004000Y017752D03*
X004000Y019752D03*
X005000Y019752D03*
X006500Y019752D03*
X007500Y019752D03*
X007500Y021752D03*
X006500Y021752D03*
X005000Y021752D03*
X004000Y021752D03*
X017500Y022752D03*
X018500Y022752D03*
X018500Y020252D03*
X017500Y020252D03*
X018500Y013252D03*
X019500Y013252D03*
D11*
X016000Y020252D03*
X016000Y022752D03*
X013000Y022752D03*
X013000Y017752D03*
X013000Y015252D03*
D12*
X013000Y014252D03*
X013000Y016752D03*
X015000Y020252D03*
X015000Y022752D03*
X013000Y021752D03*
D13*
X013000Y020252D03*
X013000Y019252D03*
D14*
X011500Y019252D03*
X011500Y020252D03*
X010750Y019752D03*
X011500Y017752D03*
X010750Y017252D03*
X011500Y016752D03*
X011500Y015252D03*
X011500Y014252D03*
X010750Y014752D03*
X011500Y021752D03*
X010750Y022252D03*
X011500Y022752D03*
D15*
X017500Y011252D03*
D16*
X017500Y010252D03*
D17*
X020500Y013752D03*
X020500Y014752D03*
X020500Y015752D03*
X020500Y016752D03*
X020500Y017752D03*
X020500Y018752D03*
X020500Y019752D03*
X020500Y020752D03*
X020500Y022752D03*
X020500Y023752D03*
X020500Y024752D03*
X020500Y025752D03*
X020500Y026752D03*
X020500Y027752D03*
X011591Y008811D03*
X012134Y007693D03*
X011043Y007693D03*
X010500Y008811D03*
X009957Y007693D03*
X009409Y008811D03*
X008866Y007693D03*
X008319Y008811D03*
X001500Y010252D03*
X001500Y011252D03*
X001500Y012252D03*
X001500Y013252D03*
X001500Y014252D03*
X001500Y015252D03*
X001500Y016252D03*
X001500Y017252D03*
X001500Y018252D03*
X001500Y019252D03*
X001500Y020752D03*
X001500Y021752D03*
X001500Y022752D03*
X001500Y023752D03*
X001500Y024752D03*
X001500Y025752D03*
X001500Y026752D03*
X001500Y027752D03*
D18*
X012681Y008811D03*
D19*
X015421Y008252D03*
X005579Y008252D03*
D20*
X003700Y007252D02*
X003100Y007252D01*
X003200Y008252D02*
X003800Y008252D01*
X003700Y009252D02*
X003100Y009252D01*
X003200Y010252D02*
X003800Y010252D01*
X008000Y023852D02*
X008000Y024452D01*
X007000Y024552D02*
X007000Y023952D01*
X007000Y025952D02*
X007000Y026552D01*
X008000Y026452D02*
X008000Y025852D01*
X009000Y025952D02*
X009000Y026552D01*
X009000Y024552D02*
X009000Y023952D01*
X010600Y025252D02*
X011200Y025252D01*
X011300Y024252D02*
X010700Y024252D01*
X010700Y026252D02*
X011300Y026252D01*
X015500Y027552D02*
X015500Y028152D01*
X016500Y028052D02*
X016500Y027452D01*
X017500Y027552D02*
X017500Y028152D01*
X018500Y028052D02*
X018500Y027452D01*
X018300Y026302D02*
X017700Y026302D01*
X017700Y025202D02*
X018300Y025202D01*
X016300Y025202D02*
X015700Y025202D01*
X015700Y026302D02*
X016300Y026302D01*
X017200Y016802D02*
X017800Y016802D01*
X017800Y015702D02*
X017200Y015702D01*
X019200Y010752D02*
X019800Y010752D01*
X019900Y009752D02*
X019300Y009752D01*
X019200Y008752D02*
X019800Y008752D01*
X004800Y026252D02*
X004200Y026252D01*
X004300Y027252D02*
X004900Y027252D01*
X004800Y028252D02*
X004200Y028252D01*
M02*
