G75*
%MOIN*%
%OFA0B0*%
%FSLAX24Y24*%
%IPPOS*%
%LPD*%
%AMOC8*
5,1,8,0,0,1.08239X$1,22.5*
%
%ADD10C,0.0000*%
%ADD11C,0.0160*%
%ADD12C,0.0110*%
%ADD13OC8,0.0520*%
%ADD14C,0.0650*%
%ADD15C,0.0740*%
%ADD16R,0.0650X0.0650*%
%ADD17R,0.0740X0.0740*%
%ADD18C,0.2000*%
%ADD19C,0.0600*%
%ADD20C,0.0060*%
%ADD21C,0.0240*%
D10*
X000500Y006752D02*
X000500Y007252D01*
X000500Y006752D02*
X021370Y006752D01*
X021370Y030748D02*
X000500Y030748D01*
X000500Y028252D01*
D11*
X000500Y007252D02*
X001500Y006252D01*
X020500Y006252D01*
X021500Y007252D01*
X021500Y028752D01*
X020500Y028752D01*
X019500Y029752D01*
X006500Y029752D01*
X005500Y028752D01*
X001000Y028752D01*
X000500Y028252D01*
X000500Y007252D01*
D12*
X005055Y009807D02*
X005055Y010398D01*
X005153Y010201D02*
X005350Y010201D01*
X005449Y010103D01*
X005449Y009807D01*
X005798Y009906D02*
X005896Y009807D01*
X005798Y009906D02*
X005798Y010299D01*
X005700Y010201D02*
X005896Y010201D01*
X006129Y010201D02*
X006326Y010201D01*
X006228Y010299D02*
X006228Y009906D01*
X006326Y009807D01*
X006559Y009807D02*
X006854Y009807D01*
X006953Y009906D01*
X006953Y010103D01*
X006854Y010201D01*
X006559Y010201D01*
X006559Y009611D01*
X007203Y009807D02*
X007499Y009807D01*
X007597Y009906D01*
X007499Y010004D01*
X007302Y010004D01*
X007203Y010103D01*
X007302Y010201D01*
X007597Y010201D01*
X007848Y010201D02*
X007848Y010103D01*
X007946Y010103D01*
X007946Y010201D01*
X007848Y010201D01*
X007848Y009906D02*
X007848Y009807D01*
X007946Y009807D01*
X007946Y009906D01*
X007848Y009906D01*
X008170Y009807D02*
X008564Y010398D01*
X008600Y010857D02*
X008797Y010857D01*
X008698Y010857D02*
X008698Y011448D01*
X008600Y011448D01*
X008349Y011153D02*
X008251Y011251D01*
X008054Y011251D01*
X007955Y011153D01*
X007955Y010956D01*
X008054Y010857D01*
X008251Y010857D01*
X008349Y010956D01*
X008349Y011153D01*
X008278Y011907D02*
X008573Y011907D01*
X008671Y012006D01*
X008671Y012104D01*
X008573Y012203D01*
X008278Y012203D01*
X008027Y012203D02*
X008027Y012006D01*
X007928Y011907D01*
X007732Y011907D01*
X007633Y012006D01*
X007633Y012399D01*
X007732Y012498D01*
X007928Y012498D01*
X008027Y012399D01*
X008027Y012203D02*
X007830Y012203D01*
X007382Y011907D02*
X007382Y012498D01*
X006989Y012498D02*
X006989Y011907D01*
X007382Y011907D02*
X006989Y012498D01*
X006738Y012498D02*
X006738Y012399D01*
X006344Y012006D01*
X006344Y011907D01*
X006093Y012006D02*
X005995Y011907D01*
X005798Y011907D01*
X005700Y012006D01*
X005700Y012399D01*
X005798Y012498D01*
X005995Y012498D01*
X006093Y012399D01*
X006344Y012498D02*
X006738Y012498D01*
X007087Y011349D02*
X007087Y010956D01*
X007185Y010857D01*
X007418Y010857D02*
X007418Y011251D01*
X007418Y011054D02*
X007615Y011251D01*
X007714Y011251D01*
X007185Y011251D02*
X006989Y011251D01*
X006738Y011153D02*
X006738Y010857D01*
X006738Y011153D02*
X006639Y011251D01*
X006344Y011251D01*
X006344Y010857D01*
X006093Y010956D02*
X006093Y011153D01*
X005995Y011251D01*
X005798Y011251D01*
X005700Y011153D01*
X005700Y010956D01*
X005798Y010857D01*
X005995Y010857D01*
X006093Y010956D01*
X005449Y010956D02*
X005350Y010857D01*
X005153Y010857D01*
X005055Y010956D01*
X005055Y011349D01*
X005153Y011448D01*
X005350Y011448D01*
X005449Y011349D01*
X005449Y011907D02*
X005153Y012203D01*
X005055Y012104D02*
X005449Y012498D01*
X005055Y012498D02*
X005055Y011907D01*
X005153Y010201D02*
X005055Y010103D01*
X008278Y011907D02*
X008278Y012498D01*
X008573Y012498D01*
X008671Y012399D01*
X008671Y012301D01*
X008573Y012203D01*
X008922Y011907D02*
X009316Y012498D01*
X009567Y012498D02*
X009567Y011907D01*
X009567Y012104D02*
X009961Y012498D01*
X009665Y012203D02*
X009961Y011907D01*
X009970Y011448D02*
X009674Y011448D01*
X009674Y010857D01*
X009674Y011054D02*
X009970Y011054D01*
X010068Y011153D01*
X010068Y011349D01*
X009970Y011448D01*
X010319Y011251D02*
X010319Y010857D01*
X010319Y011054D02*
X010516Y011251D01*
X010614Y011251D01*
X010856Y011153D02*
X010856Y010956D01*
X010954Y010857D01*
X011151Y010857D01*
X011250Y010956D01*
X011250Y011153D01*
X011151Y011251D01*
X010954Y011251D01*
X010856Y011153D01*
X010856Y011907D02*
X010856Y012498D01*
X011250Y011907D01*
X011250Y012498D01*
X011500Y012399D02*
X011500Y012006D01*
X011599Y011907D01*
X011796Y011907D01*
X011894Y012006D01*
X011894Y012203D01*
X011697Y012203D01*
X011500Y012399D02*
X011599Y012498D01*
X011796Y012498D01*
X011894Y012399D01*
X012790Y012498D02*
X012790Y011907D01*
X012790Y012104D02*
X013085Y012104D01*
X013183Y012203D01*
X013183Y012399D01*
X013085Y012498D01*
X012790Y012498D01*
X012986Y012104D02*
X013183Y011907D01*
X013434Y012006D02*
X013434Y012203D01*
X013533Y012301D01*
X013729Y012301D01*
X013828Y012203D01*
X013828Y012006D01*
X013729Y011907D01*
X013533Y011907D01*
X013434Y012006D01*
X013398Y011251D02*
X013398Y010759D01*
X013300Y010661D01*
X013201Y010661D01*
X013103Y010857D02*
X013004Y010956D01*
X013004Y011251D01*
X012772Y011251D02*
X012575Y011251D01*
X012673Y011349D02*
X012673Y010956D01*
X012772Y010857D01*
X013103Y010857D02*
X013398Y010857D01*
X013649Y010857D02*
X013944Y010857D01*
X014043Y010956D01*
X014043Y011153D01*
X013944Y011251D01*
X013649Y011251D01*
X013649Y010661D01*
X013649Y010201D02*
X013649Y009807D01*
X013649Y010004D02*
X013846Y010201D01*
X013944Y010201D01*
X014186Y010103D02*
X014383Y010103D01*
X014580Y010398D02*
X014186Y010398D01*
X014186Y009807D01*
X014580Y009807D01*
X014831Y009807D02*
X015028Y009807D01*
X014929Y009807D02*
X014929Y010398D01*
X014831Y010398D01*
X015260Y010398D02*
X015260Y009807D01*
X015556Y009807D01*
X015654Y009906D01*
X015654Y010103D01*
X015556Y010201D01*
X015260Y010201D01*
X015779Y010857D02*
X015583Y011054D01*
X015583Y011448D01*
X015681Y011907D02*
X015583Y012006D01*
X015583Y012203D01*
X015681Y012301D01*
X015878Y012301D01*
X015976Y012203D01*
X015976Y012006D01*
X015878Y011907D01*
X015681Y011907D01*
X015976Y011448D02*
X015976Y011054D01*
X015779Y010857D01*
X016227Y010956D02*
X016621Y011349D01*
X016621Y010956D01*
X016522Y010857D01*
X016326Y010857D01*
X016227Y010956D01*
X016227Y011349D01*
X016326Y011448D01*
X016522Y011448D01*
X016621Y011349D01*
X016872Y010956D02*
X016970Y010956D01*
X016970Y010857D01*
X016872Y010857D01*
X016872Y010956D01*
X017194Y010857D02*
X017588Y010857D01*
X017391Y010857D02*
X017391Y011448D01*
X017194Y011251D01*
X016522Y012301D02*
X016424Y012301D01*
X016227Y012104D01*
X016227Y011907D02*
X016227Y012301D01*
X015350Y012301D02*
X015153Y012301D01*
X015251Y012399D02*
X015251Y012006D01*
X015350Y011907D01*
X014902Y011907D02*
X014607Y011907D01*
X014508Y012006D01*
X014607Y012104D01*
X014902Y012104D01*
X014902Y012203D02*
X014902Y011907D01*
X014902Y012203D02*
X014804Y012301D01*
X014607Y012301D01*
X014276Y012301D02*
X014079Y012301D01*
X014177Y012399D02*
X014177Y012006D01*
X014276Y011907D01*
X014392Y011251D02*
X014294Y011153D01*
X014294Y010956D01*
X014392Y010857D01*
X014589Y010857D01*
X014687Y011054D02*
X014294Y011054D01*
X014392Y011251D02*
X014589Y011251D01*
X014687Y011153D01*
X014687Y011054D01*
X013398Y010201D02*
X013201Y009807D01*
X013004Y010201D01*
X012754Y010398D02*
X012360Y009807D01*
X012109Y009906D02*
X012011Y009807D01*
X011814Y009807D01*
X011715Y009906D01*
X011715Y010103D01*
X011814Y010201D01*
X012011Y010201D01*
X012109Y010103D01*
X012109Y009906D01*
X011482Y009807D02*
X011286Y009807D01*
X011384Y009807D02*
X011384Y010201D01*
X011286Y010201D01*
X011384Y010398D02*
X011384Y010496D01*
X011697Y010857D02*
X011599Y010956D01*
X011599Y011349D01*
X011697Y011251D02*
X011500Y011251D01*
X011930Y011153D02*
X011930Y010956D01*
X012029Y010857D01*
X012225Y010857D01*
X012324Y010956D01*
X012324Y011153D01*
X012225Y011251D01*
X012029Y011251D01*
X011930Y011153D01*
X011062Y009906D02*
X011062Y009807D01*
X010963Y009807D01*
X010963Y009906D01*
X011062Y009906D01*
X010731Y009807D02*
X010632Y009906D01*
X010632Y010299D01*
X010534Y010201D02*
X010731Y010201D01*
X010202Y010201D02*
X010202Y009807D01*
X010104Y009807D02*
X010301Y009807D01*
X010202Y010201D02*
X010104Y010201D01*
X010202Y010398D02*
X010202Y010496D01*
X009853Y010201D02*
X009558Y010201D01*
X009459Y010103D01*
X009459Y009906D01*
X009558Y009807D01*
X009853Y009807D01*
X009853Y009709D02*
X009853Y010201D01*
X009853Y009709D02*
X009755Y009611D01*
X009656Y009611D01*
X008815Y009807D02*
X009209Y010398D01*
X010310Y011907D02*
X010211Y012006D01*
X010310Y011907D02*
X010507Y011907D01*
X010605Y012006D01*
X010605Y012104D01*
X010507Y012203D01*
X010408Y012203D01*
X010507Y012203D02*
X010605Y012301D01*
X010605Y012399D01*
X010507Y012498D01*
X010310Y012498D01*
X010211Y012399D01*
D13*
X008500Y013752D03*
X007500Y013752D03*
X006500Y013752D03*
X005500Y013752D03*
X005500Y016252D03*
X006500Y016252D03*
X007500Y016252D03*
X008500Y016252D03*
X011000Y020752D03*
X012000Y020752D03*
X014000Y020752D03*
X015000Y020752D03*
X016500Y018752D03*
X017500Y018752D03*
X004500Y018252D03*
X003500Y018252D03*
X003500Y016252D03*
X004500Y016252D03*
X004500Y020752D03*
X003500Y020752D03*
X003500Y022752D03*
X004500Y022752D03*
D14*
X011000Y019252D03*
X012000Y019252D03*
X012000Y017252D03*
X011000Y017252D03*
X011000Y015252D03*
X012000Y015252D03*
X014000Y015252D03*
X015000Y015252D03*
X015000Y017252D03*
X014000Y017252D03*
X014000Y019252D03*
X015000Y019252D03*
X016500Y015752D03*
D15*
X020500Y015752D03*
X020500Y016752D03*
X020500Y017752D03*
X020500Y018752D03*
X020500Y019752D03*
X020500Y020752D03*
X020500Y022752D03*
X020500Y023752D03*
X020500Y024752D03*
X020500Y025752D03*
X020500Y026752D03*
X020500Y027752D03*
X020500Y014752D03*
X020500Y013752D03*
X012134Y007693D03*
X011591Y008811D03*
X011043Y007693D03*
X010500Y008811D03*
X009957Y007693D03*
X009409Y008811D03*
X008866Y007693D03*
X008319Y008811D03*
X008500Y018252D03*
X008500Y019252D03*
X007750Y018752D03*
X006000Y018252D03*
X005250Y018752D03*
X006000Y019252D03*
X006000Y021252D03*
X005250Y021752D03*
X006000Y022252D03*
X007750Y021752D03*
X008500Y021252D03*
X008500Y022252D03*
X001500Y021752D03*
X001500Y020752D03*
X001500Y019252D03*
X001500Y018252D03*
X001500Y017252D03*
X001500Y016252D03*
X001500Y015252D03*
X001500Y014252D03*
X001500Y013252D03*
X001500Y012252D03*
X001500Y011252D03*
X001500Y010252D03*
X001500Y022752D03*
X001500Y023752D03*
X001500Y024752D03*
X001500Y025752D03*
X001500Y026752D03*
X001500Y027752D03*
D16*
X017500Y015752D03*
D17*
X012681Y008811D03*
D18*
X015421Y008252D03*
X005579Y008252D03*
D19*
X014450Y022452D02*
X014450Y023052D01*
X015550Y023052D02*
X015550Y022452D01*
X017200Y022752D02*
X017800Y022752D01*
X017900Y021752D02*
X017300Y021752D01*
X017200Y020752D02*
X017800Y020752D01*
X018050Y024952D02*
X018050Y025552D01*
X016950Y025552D02*
X016950Y024952D01*
X015550Y024952D02*
X015550Y025552D01*
X014450Y025552D02*
X014450Y024952D01*
X015000Y027452D02*
X015000Y028052D01*
X014000Y028152D02*
X014000Y027552D01*
X013000Y027452D02*
X013000Y028052D01*
X012000Y026052D02*
X012000Y025452D01*
X011000Y025352D02*
X011000Y025952D01*
X010000Y026052D02*
X010000Y025452D01*
X010000Y023552D02*
X010000Y022952D01*
X011000Y022852D02*
X011000Y023452D01*
X012000Y023552D02*
X012000Y022952D01*
X007400Y025752D02*
X006800Y025752D01*
X006700Y024752D02*
X007300Y024752D01*
X007300Y026752D02*
X006700Y026752D01*
X006800Y027752D02*
X007400Y027752D01*
X004400Y027752D02*
X003800Y027752D01*
X003700Y026752D02*
X004300Y026752D01*
X004400Y025752D02*
X003800Y025752D01*
X003700Y024752D02*
X004300Y024752D01*
X016500Y027452D02*
X016500Y028052D01*
X017500Y028152D02*
X017500Y027552D01*
X018500Y027452D02*
X018500Y028052D01*
D20*
X018500Y027752D02*
X018500Y028752D01*
X015000Y028752D01*
X014500Y028252D01*
X014500Y026252D01*
X014000Y025752D01*
X014000Y021752D01*
X012000Y021752D01*
X011000Y022752D01*
X011000Y023152D01*
X012000Y023252D02*
X011000Y024252D01*
X010000Y024252D01*
X010000Y025752D01*
X010500Y026252D02*
X010000Y026752D01*
X009500Y026752D01*
X009500Y023752D01*
X010000Y023252D01*
X009000Y023252D02*
X013000Y019252D01*
X013000Y016752D01*
X013500Y015752D02*
X014000Y015252D01*
X014500Y014752D02*
X014500Y017752D01*
X014000Y018252D01*
X014000Y019252D01*
X013500Y019752D02*
X013500Y015752D01*
X014500Y014752D02*
X015000Y014252D01*
X015500Y014252D02*
X015500Y016752D01*
X015000Y017252D01*
X015000Y017752D01*
X014500Y018252D01*
X014500Y020252D01*
X014000Y020752D01*
X013500Y019752D02*
X012000Y021252D01*
X012000Y019252D02*
X012000Y017252D01*
X012000Y015252D01*
X011000Y015252D02*
X011000Y013752D01*
X010500Y013252D01*
X011500Y013252D02*
X011500Y018752D01*
X011000Y019252D01*
X009000Y021252D01*
X009000Y021752D01*
X008500Y022252D01*
X008000Y021752D02*
X007750Y021752D01*
X008000Y021752D02*
X008000Y025252D01*
X006500Y025252D01*
X006000Y024752D01*
X006000Y023752D01*
X004500Y022252D01*
X004500Y020752D01*
X005250Y021752D02*
X005500Y021752D01*
X005500Y020752D01*
X006500Y019752D01*
X006500Y016252D01*
X006000Y016752D02*
X004500Y018252D01*
X005000Y018752D01*
X005250Y018752D01*
X006000Y016752D02*
X006000Y014252D01*
X006500Y013752D01*
X005500Y013752D02*
X005500Y016252D01*
X005000Y015752D02*
X005000Y013752D01*
X005500Y013252D01*
X008000Y013252D01*
X008000Y018752D01*
X007750Y018752D01*
X009000Y019752D02*
X009000Y016752D01*
X008500Y016252D01*
X007500Y016252D02*
X007000Y016752D01*
X007000Y022252D01*
X007000Y024752D01*
X007100Y025752D02*
X009000Y025752D01*
X009000Y023252D01*
X008000Y021752D02*
X008000Y020752D01*
X009000Y019752D01*
X007000Y022252D02*
X006000Y021252D01*
X007100Y025752D02*
X004100Y025752D01*
X002500Y026252D02*
X004000Y027752D01*
X004100Y027752D01*
X002500Y026252D02*
X002500Y011252D01*
X001500Y010252D01*
X005000Y015752D02*
X004500Y016252D01*
X007500Y016252D02*
X007500Y013752D01*
X008000Y013252D02*
X008500Y013252D01*
X008500Y013752D01*
X009000Y007752D02*
X008866Y007693D01*
X009000Y007752D02*
X010000Y007752D01*
X009957Y007693D01*
X014500Y013252D02*
X015500Y014252D01*
X017500Y015752D02*
X018500Y016752D01*
X018500Y021752D01*
X017500Y022752D01*
X018000Y024252D02*
X016500Y024252D01*
X016500Y027752D01*
X017500Y027852D02*
X017500Y025752D01*
X018000Y025252D01*
X018050Y025252D01*
X019000Y025252D02*
X018000Y024252D01*
X019000Y025252D02*
X019000Y029252D01*
X013500Y029252D01*
X012500Y028252D01*
X012500Y027252D01*
X011000Y025752D01*
X011000Y025652D01*
X010500Y026252D02*
X010500Y024752D01*
X011000Y024752D01*
X012000Y025752D01*
X012500Y025252D02*
X012500Y026252D01*
X014000Y027752D01*
X014000Y027852D01*
X015000Y027752D02*
X015000Y024252D01*
X015500Y025252D02*
X015550Y025252D01*
X015500Y025252D02*
X015500Y022752D01*
X015550Y022752D01*
X015500Y022752D02*
X015500Y019752D01*
X015000Y019252D01*
X016500Y018752D02*
X017500Y019752D01*
X017500Y020752D01*
X019000Y021252D02*
X020000Y022252D01*
X020000Y023252D01*
X020500Y023752D01*
X020500Y019752D02*
X020500Y018752D01*
D21*
X019000Y021252D03*
X015000Y024252D03*
X012500Y025252D03*
X012000Y021252D03*
X013000Y016752D03*
X015000Y014252D03*
X014500Y013252D03*
X011500Y013252D03*
X010500Y013252D03*
M02*
