%
M48
M72
T01C0.0120
T02C0.0276
T03C0.0320
T04C0.0400
T05C0.0440
T06C0.1300
%
T01
X9000Y23752
X15500Y26252
X18000Y21252
X17500Y19752
T02
X10500Y22252
X11500Y22252
X11500Y20252
X10500Y20252
X10500Y18252
X11500Y18252
X11500Y16252
X10500Y16252
X13500Y16252
X14500Y16252
X14000Y18252
X15000Y18252
X19000Y11752
X20000Y11752
T03
X3000Y16752
X4000Y16752
X4000Y18752
X3000Y18752
X3000Y20752
X4000Y20752
X5250Y21752
X6000Y21252
X6000Y22252
X7250Y20752
X8000Y20252
X8000Y21252
X6000Y19752
X5250Y19252
X6000Y18752
X7250Y17252
X8000Y16752
X8000Y17752
X4000Y22752
X3000Y22752
X16500Y18252
X17500Y18252
X17500Y16252
X16500Y16252
T04
X1500Y10252
X1500Y11252
X1500Y12252
X1500Y13252
X1500Y14252
X1500Y15252
X1500Y16252
X1500Y17252
X1500Y18252
X1500Y19252
X1500Y20752
X1500Y21752
X1500Y22752
X1500Y23752
X1500Y24752
X1500Y25752
X1500Y26752
X1500Y27752
X10000Y25752
X10000Y24752
X11000Y24752
X11000Y25752
X12000Y25752
X12000Y24752
X14450Y24752
X15550Y24752
X16950Y24752
X18050Y24752
X20500Y24752
X20500Y23752
X20500Y22752
X20500Y20752
X20500Y19752
X20500Y18752
X20500Y17752
X20500Y16752
X20500Y15752
X20500Y14752
X20500Y13752
X15550Y21752
X14450Y21752
X13681Y13811
X13134Y12693
X12591Y13811
X12043Y12693
X11500Y13811
X10957Y12693
X10409Y13811
X9866Y12693
X9319Y13811
X20500Y25752
X20500Y26752
X20500Y27752
T05
X5000Y27752
X5000Y26752
X5000Y25752
X5000Y24752
X7500Y24752
X7500Y25752
X7500Y26752
X7500Y27752
X13000Y27752
X14000Y27752
X15000Y27752
X16500Y27752
X17500Y27752
X18500Y27752
T06
X6579Y13252
X16421Y13252
M30
