G75*
%MOIN*%
%OFA0B0*%
%FSLAX24Y24*%
%IPPOS*%
%LPD*%
%AMOC8*
5,1,8,0,0,1.08239X$1,22.5*
%
%ADD10C,0.0000*%
%ADD11C,0.0160*%
%ADD12OC8,0.0560*%
%ADD13C,0.0316*%
%ADD14C,0.0400*%
%ADD15C,0.0690*%
%ADD16R,0.0690X0.0690*%
%ADD17C,0.0780*%
%ADD18R,0.0780X0.0780*%
%ADD19C,0.2040*%
%ADD20C,0.0640*%
D10*
X000500Y006752D02*
X000500Y007252D01*
X000500Y006752D02*
X021370Y006752D01*
X021370Y030748D01*
X000500Y030748D01*
X000500Y028252D01*
D11*
X000500Y007252D02*
X001500Y006252D01*
X020500Y006252D01*
X021500Y007252D01*
X021500Y028752D01*
X020500Y028752D01*
X019500Y029752D01*
X006500Y029752D01*
X005500Y028752D01*
X001000Y028752D01*
X000500Y028252D01*
X000500Y007252D01*
D12*
X005500Y013752D03*
X006500Y013752D03*
X007500Y013752D03*
X008500Y013752D03*
X008500Y016252D03*
X007500Y016252D03*
X006500Y016252D03*
X005500Y016252D03*
X004500Y016252D03*
X003500Y016252D03*
X003500Y018252D03*
X004500Y018252D03*
X004500Y020752D03*
X003500Y020752D03*
X003500Y022752D03*
X004500Y022752D03*
X017000Y021752D03*
X018000Y021752D03*
X018000Y019252D03*
X017000Y019252D03*
X017000Y013252D03*
X018000Y013252D03*
D13*
X015000Y015252D03*
X014000Y015252D03*
X014000Y017252D03*
X015000Y017252D03*
X015000Y019252D03*
X014000Y019252D03*
X012000Y019252D03*
X011000Y019252D03*
X011000Y017252D03*
X012000Y017252D03*
X012000Y015252D03*
X011000Y015252D03*
D14*
X008500Y018252D03*
X008500Y019252D03*
X007750Y018752D03*
X006000Y018252D03*
X005250Y018752D03*
X006000Y019252D03*
X006000Y021252D03*
X005250Y021752D03*
X006000Y022252D03*
X007750Y021752D03*
X008500Y021252D03*
X008500Y022252D03*
D15*
X020500Y011252D03*
D16*
X019500Y011252D03*
D17*
X020500Y013752D03*
X020500Y014752D03*
X020500Y015752D03*
X020500Y016752D03*
X020500Y017752D03*
X020500Y018752D03*
X020500Y019752D03*
X020500Y020752D03*
X020500Y022752D03*
X020500Y023752D03*
X020500Y024752D03*
X020500Y025752D03*
X020500Y026752D03*
X020500Y027752D03*
X011591Y008811D03*
X012134Y007693D03*
X011043Y007693D03*
X010500Y008811D03*
X009957Y007693D03*
X009409Y008811D03*
X008866Y007693D03*
X008319Y008811D03*
X001500Y010252D03*
X001500Y011252D03*
X001500Y012252D03*
X001500Y013252D03*
X001500Y014252D03*
X001500Y015252D03*
X001500Y016252D03*
X001500Y017252D03*
X001500Y018252D03*
X001500Y019252D03*
X001500Y020752D03*
X001500Y021752D03*
X001500Y022752D03*
X001500Y023752D03*
X001500Y024752D03*
X001500Y025752D03*
X001500Y026752D03*
X001500Y027752D03*
D18*
X012681Y008811D03*
D19*
X015421Y008252D03*
X005579Y008252D03*
D20*
X014450Y021452D02*
X014450Y022052D01*
X015550Y022052D02*
X015550Y021452D01*
X015550Y024452D02*
X015550Y025052D01*
X014450Y025052D02*
X014450Y024452D01*
X012500Y025452D02*
X012500Y026052D01*
X011500Y025952D02*
X011500Y025352D01*
X010500Y025452D02*
X010500Y026052D01*
X010500Y023052D02*
X010500Y022452D01*
X011500Y022352D02*
X011500Y022952D01*
X012500Y023052D02*
X012500Y022452D01*
X013000Y027452D02*
X013000Y028052D01*
X014000Y028152D02*
X014000Y027552D01*
X015000Y027452D02*
X015000Y028052D01*
X016500Y028052D02*
X016500Y027452D01*
X017500Y027552D02*
X017500Y028152D01*
X018500Y028052D02*
X018500Y027452D01*
X018050Y025052D02*
X018050Y024452D01*
X016950Y024452D02*
X016950Y025052D01*
X007400Y025752D02*
X006800Y025752D01*
X006700Y024752D02*
X007300Y024752D01*
X007300Y026752D02*
X006700Y026752D01*
X006800Y027752D02*
X007400Y027752D01*
X004400Y027752D02*
X003800Y027752D01*
X003700Y026752D02*
X004300Y026752D01*
X004400Y025752D02*
X003800Y025752D01*
X003700Y024752D02*
X004300Y024752D01*
X015500Y011552D02*
X015500Y010952D01*
X016500Y010852D02*
X016500Y011452D01*
X017500Y011552D02*
X017500Y010952D01*
M02*
