%
M48
M72
T01C0.0120
T02C0.0276
T03C0.0320
T04C0.0400
T05C0.1300
%
T01
X2500Y22752
X7500Y17752
X13500Y18752
T02
X11000Y19252
X12000Y19252
X12000Y17252
X11000Y17252
X11000Y15252
X12000Y15252
X14000Y15252
X15000Y15252
X15000Y17252
X14000Y17252
X14000Y19252
X15000Y19252
X19500Y11252
X20500Y11252
T03
X4500Y22752
X3500Y22752
X3500Y20752
X4500Y20752
X5250Y21752
X6000Y21252
X6000Y22252
X7750Y21752
X8500Y21252
X8500Y22252
X8500Y19252
X8500Y18252
X7750Y18752
X6000Y18252
X5250Y18752
X6000Y19252
X4500Y18252
X3500Y18252
X3500Y16252
X4500Y16252
X5500Y16252
X6500Y16252
X7500Y16252
X8500Y16252
X8500Y13752
X7500Y13752
X6500Y13752
X5500Y13752
X17000Y21752
X18000Y21752
X18000Y19252
X17000Y19252
X17000Y13252
X18000Y13252
T04
X4100Y27752
X4000Y26752
X4100Y25752
X4000Y24752
X1500Y24752
X1500Y25752
X1500Y26752
X1500Y27752
X1500Y23752
X1500Y22752
X1500Y21752
X1500Y20752
X1500Y19252
X1500Y18252
X1500Y17252
X1500Y16252
X1500Y15252
X1500Y14252
X1500Y13252
X1500Y12252
X1500Y11252
X1500Y10252
X8319Y8811
X8866Y7693
X9409Y8811
X9957Y7693
X10500Y8811
X11043Y7693
X11591Y8811
X12134Y7693
X12681Y8811
X15500Y11252
X16500Y11152
X17500Y11252
X20500Y13752
X20500Y14752
X20500Y15752
X20500Y16752
X20500Y17752
X20500Y18752
X20500Y19752
X20500Y20752
X20500Y22752
X20500Y23752
X20500Y24752
X20500Y25752
X20500Y26752
X20500Y27752
X18500Y27752
X17500Y27852
X16500Y27752
X15000Y27752
X14000Y27852
X13000Y27752
X12500Y25752
X11500Y25652
X10500Y25752
X10500Y22752
X11500Y22652
X12500Y22752
X14450Y21752
X15550Y21752
X15550Y24752
X14450Y24752
X16950Y24752
X18050Y24752
X7100Y25752
X7000Y24752
X7000Y26752
X7100Y27752
T05
X5579Y8252
X15421Y8252
M30
