G75*
%MOIN*%
%OFA0B0*%
%FSLAX24Y24*%
%IPPOS*%
%LPD*%
%AMOC8*
5,1,8,0,0,1.08239X$1,22.5*
%
%ADD10C,0.0160*%
%ADD11OC8,0.0520*%
%ADD12C,0.0650*%
%ADD13C,0.0740*%
%ADD14R,0.0650X0.0650*%
%ADD15R,0.0740X0.0740*%
%ADD16C,0.2000*%
%ADD17C,0.0600*%
%ADD18C,0.0060*%
%ADD19C,0.0240*%
D10*
X001500Y006252D02*
X000500Y007252D01*
X000500Y028252D01*
X001000Y028752D01*
X005500Y028752D01*
X006500Y029752D01*
X019500Y029752D01*
X020500Y028752D01*
X021500Y028752D01*
X021500Y007252D01*
X020500Y006252D01*
X001500Y006252D01*
D11*
X005500Y013752D03*
X006500Y013752D03*
X007500Y013752D03*
X008500Y013752D03*
X008500Y016252D03*
X007500Y016252D03*
X006500Y016252D03*
X005500Y016252D03*
X004500Y016252D03*
X003500Y016252D03*
X003500Y018252D03*
X004500Y018252D03*
X004500Y020752D03*
X003500Y020752D03*
X003500Y022752D03*
X004500Y022752D03*
X011000Y020752D03*
X012000Y020752D03*
X014000Y020752D03*
X015000Y020752D03*
X016500Y018752D03*
X017500Y018752D03*
D12*
X016500Y015752D03*
X015000Y015252D03*
X014000Y015252D03*
X014000Y017252D03*
X015000Y017252D03*
X015000Y019252D03*
X014000Y019252D03*
X012000Y019252D03*
X011000Y019252D03*
X011000Y017252D03*
X012000Y017252D03*
X012000Y015252D03*
X011000Y015252D03*
D13*
X008500Y018252D03*
X007750Y018752D03*
X008500Y019252D03*
X008500Y021252D03*
X008500Y022252D03*
X007750Y021752D03*
X006000Y021252D03*
X005250Y021752D03*
X006000Y022252D03*
X006000Y019252D03*
X005250Y018752D03*
X006000Y018252D03*
X001500Y018252D03*
X001500Y017252D03*
X001500Y016252D03*
X001500Y015252D03*
X001500Y014252D03*
X001500Y013252D03*
X001500Y012252D03*
X001500Y011252D03*
X001500Y010252D03*
X001500Y019252D03*
X001500Y020752D03*
X001500Y021752D03*
X001500Y022752D03*
X001500Y023752D03*
X001500Y024752D03*
X001500Y025752D03*
X001500Y026752D03*
X001500Y027752D03*
X008319Y008811D03*
X008866Y007693D03*
X009409Y008811D03*
X009957Y007693D03*
X010500Y008811D03*
X011043Y007693D03*
X011591Y008811D03*
X012134Y007693D03*
X020500Y013752D03*
X020500Y014752D03*
X020500Y015752D03*
X020500Y016752D03*
X020500Y017752D03*
X020500Y018752D03*
X020500Y019752D03*
X020500Y020752D03*
X020500Y022752D03*
X020500Y023752D03*
X020500Y024752D03*
X020500Y025752D03*
X020500Y026752D03*
X020500Y027752D03*
D14*
X017500Y015752D03*
D15*
X012681Y008811D03*
D16*
X015421Y008252D03*
X005579Y008252D03*
D17*
X014450Y022452D02*
X014450Y023052D01*
X015550Y023052D02*
X015550Y022452D01*
X017200Y022752D02*
X017800Y022752D01*
X017900Y021752D02*
X017300Y021752D01*
X017200Y020752D02*
X017800Y020752D01*
X018050Y024952D02*
X018050Y025552D01*
X016950Y025552D02*
X016950Y024952D01*
X015550Y024952D02*
X015550Y025552D01*
X014450Y025552D02*
X014450Y024952D01*
X015000Y027452D02*
X015000Y028052D01*
X014000Y028152D02*
X014000Y027552D01*
X013000Y027452D02*
X013000Y028052D01*
X012000Y026052D02*
X012000Y025452D01*
X011000Y025352D02*
X011000Y025952D01*
X010000Y026052D02*
X010000Y025452D01*
X010000Y023552D02*
X010000Y022952D01*
X011000Y022852D02*
X011000Y023452D01*
X012000Y023552D02*
X012000Y022952D01*
X007400Y025752D02*
X006800Y025752D01*
X006700Y026752D02*
X007300Y026752D01*
X007400Y027752D02*
X006800Y027752D01*
X006700Y024752D02*
X007300Y024752D01*
X004400Y025752D02*
X003800Y025752D01*
X003700Y026752D02*
X004300Y026752D01*
X004400Y027752D02*
X003800Y027752D01*
X003700Y024752D02*
X004300Y024752D01*
X016500Y027452D02*
X016500Y028052D01*
X017500Y028152D02*
X017500Y027552D01*
X018500Y027452D02*
X018500Y028052D01*
D18*
X019390Y029499D02*
X020500Y027752D01*
X020500Y026752D02*
X007000Y026752D01*
X007100Y027752D02*
X007500Y027752D01*
X008390Y029499D01*
X019390Y029499D01*
X017000Y026252D02*
X018000Y025252D01*
X018050Y025252D01*
X018000Y024252D02*
X019500Y024252D01*
X020000Y024752D01*
X020500Y024752D01*
X021000Y024252D02*
X020000Y024252D01*
X019500Y023752D01*
X016000Y023752D01*
X014500Y025252D01*
X014450Y025252D01*
X014500Y026252D02*
X013500Y026252D01*
X012500Y025252D01*
X012000Y024752D01*
X007000Y024752D01*
X004000Y024752D01*
X003500Y022752D02*
X002500Y021752D01*
X001500Y021752D01*
X001500Y020752D02*
X003500Y020752D01*
X002500Y019252D02*
X001500Y019252D01*
X001500Y018252D02*
X003500Y016252D01*
X004000Y017252D02*
X011000Y017252D01*
X008000Y014252D01*
X008000Y008752D01*
X008319Y008811D01*
X008500Y007752D02*
X008866Y007693D01*
X008500Y007752D02*
X005000Y011252D01*
X007500Y013752D01*
X005500Y013752D02*
X002500Y013752D01*
X005000Y011252D01*
X002500Y013752D02*
X002000Y013752D01*
X001500Y013252D01*
X001500Y011252D02*
X001000Y011252D01*
X001000Y025252D01*
X002500Y025252D01*
X004000Y026752D01*
X003000Y027252D02*
X001500Y025752D01*
X001500Y024752D02*
X002000Y024252D01*
X015000Y024252D01*
X015500Y023752D02*
X016000Y023252D01*
X020000Y023252D01*
X020500Y022752D01*
X021000Y021752D02*
X017600Y021752D01*
X015500Y021752D01*
X014500Y022752D01*
X014450Y022752D01*
X014000Y022752D02*
X014000Y023752D01*
X015500Y023752D01*
X015500Y025252D02*
X015550Y025252D01*
X015500Y025252D02*
X014500Y026252D01*
X015500Y025252D02*
X016500Y026252D01*
X017000Y026252D01*
X017000Y025252D02*
X016950Y025252D01*
X017000Y025252D02*
X018000Y024252D01*
X019000Y021252D02*
X015500Y021252D01*
X015000Y020752D01*
X015000Y019252D02*
X020000Y019252D01*
X020500Y018752D01*
X020500Y017752D02*
X018500Y017752D01*
X017500Y018752D01*
X015500Y016752D01*
X013000Y016752D01*
X013000Y017252D02*
X015000Y019252D01*
X014000Y019252D02*
X013500Y019752D01*
X012000Y019752D01*
X011000Y020752D01*
X010500Y021252D02*
X012000Y021252D01*
X012000Y020752D02*
X014000Y022752D01*
X012000Y023252D02*
X011000Y022252D01*
X010000Y022252D01*
X009000Y023252D01*
X002000Y023252D01*
X001500Y022752D01*
X001500Y023752D02*
X009500Y023752D01*
X010000Y023252D01*
X009000Y022752D02*
X010500Y021252D01*
X009000Y022752D02*
X006500Y022752D01*
X006000Y022252D01*
X005500Y021752D02*
X005250Y021752D01*
X005500Y021752D02*
X004500Y022752D01*
X006000Y021252D02*
X007000Y021252D01*
X007000Y018252D01*
X006000Y018252D01*
X006000Y019252D02*
X005000Y019252D01*
X004000Y018252D01*
X004000Y017252D01*
X003500Y018252D02*
X002500Y019252D01*
X007000Y018252D02*
X008500Y018252D01*
X009000Y018752D02*
X008500Y019252D01*
X009000Y018752D02*
X011500Y018752D01*
X011500Y016752D01*
X011000Y016752D01*
X011000Y015252D01*
X012000Y015252D02*
X012500Y015752D01*
X014500Y015752D01*
X015000Y015252D01*
X015500Y015752D01*
X015000Y014252D02*
X015000Y010252D01*
X012500Y007752D01*
X012134Y007693D01*
X011500Y008752D02*
X011591Y008811D01*
X011500Y008752D02*
X011500Y013252D01*
X010500Y013752D02*
X012500Y013752D01*
X014000Y015252D01*
X014500Y013252D02*
X013000Y013252D01*
X013000Y008752D01*
X012681Y008811D01*
X010500Y008752D02*
X010500Y008811D01*
X010500Y013252D01*
X010500Y013752D02*
X009500Y012752D01*
X009500Y008752D01*
X009409Y008811D01*
X012000Y017252D02*
X013000Y017252D01*
X014000Y017252D01*
X008500Y021252D02*
X007000Y021252D01*
X003000Y027252D02*
X012500Y027252D01*
X013000Y027752D01*
X020500Y025752D02*
X021000Y025752D01*
X021000Y024252D01*
X021000Y021752D02*
X021000Y016252D01*
X020500Y015752D01*
D19*
X019000Y021252D03*
X015000Y024252D03*
X012500Y025252D03*
X012000Y021252D03*
X013000Y016752D03*
X015000Y014252D03*
X014500Y013252D03*
X011500Y013252D03*
X010500Y013252D03*
M02*
